<?xml version="1.0" standalone="no"?>
<!DOCTYPE svg PUBLIC "-//W3C//DTD SVG 1.1//EN" "http://www.w3.org/Graphics/SVG/1.1/DTD/svg11.dtd" >
<!--
2013-9-30: Created.
-->
<svg>
<metadata>
Created by iconfont
</metadata>
<defs>

<font id="iconfont" horiz-adv-x="1024" >
  <font-face
    font-family="iconfont"
    font-weight="500"
    font-stretch="normal"
    units-per-em="1024"
    ascent="896"
    descent="-128"
  />
    <missing-glyph />
    
    <glyph glyph-name="guanli" unicode="&#58956;" d="M703.670044 280.202667c-11.855644 11.832889-39.958756 13.243733-52.701867 2.389333-4.733156-4.050489-4.642133-13.334756 7.190756-25.144889l182.044444-182.044444c23.460978-36.977778-36.977778-91.022222-68.266667-91.022222-16.907378 0-31.9488-6.485333-63.670044 15.951644-0.637156 0.750933-0.910222 1.729422-1.661156 2.434844l-61.166933 60.802844-6.530844 6.530844 0-0.045511-49.334044 49.015467c0.068267 0.045511 0.136533 0.091022 0.227556 0.136533l-33.9968 23.369956c-40.618667-26.305422-75.616711-29.787022-127.613156-29.787022-143.428267 0-259.709156 116.258133-259.709156 259.6864 0 26.350933 19.569778 83.922489 26.897067 107.861333l138.148978-137.375289c0.932978-0.932978 2.161778-1.342578 3.163022-2.139022 1.069511-1.547378 1.729422-3.299556 3.117511-4.664889 11.855644-11.855644 24.1664-28.034844 45.2608-10.490311l91.022222 91.022222c24.644267 26.055111 9.693867 45.8752-7.122489 65.558756-0.796444 0.932978-2.002489 1.206044-2.935467 1.956978-1.001244 1.410844-1.615644 3.072-2.889956 4.3008L338.3296 610.158222c16.884622 10.080711 49.470578 21.026133 70.883556 22.436978 143.109689 9.511822 284.012089-108.657778 284.012089-252.086044 0-2.753422-0.637156-6.394311-1.456356-10.217244l34.6112 0c0 0.318578 0.045511 0.6144 0.045511 0.932978 0 163.384889-132.437333 295.822222-295.822222 295.822222-50.676622 0-94.8224-23.074133-136.533333-45.511111-14.677333-11.286756 4.255289-26.305422 13.607822-35.680711l135.964444-136.8064-78.142578-78.756978-136.260267 137.102222c-9.807644 9.8304-35.271111 43.076267-48.9472 23.119644-27.648-45.033244-45.511111-102.627556-45.511111-159.288889 0-163.384889 132.437333-295.822222 295.822222-295.822222 41.824711 0 81.487644 8.897422 117.509689 24.621511l128.932978-128.136533c0.136533-0.136533 0.318578-0.182044 0.477867-0.318578 21.344711-23.552 51.837156-38.616178 86.107022-38.616178 64.398222 0 176.833422 89.816178 99.328 187.960889C861.525333 125.3056 703.670044 280.202667 703.670044 280.202667z"  horiz-adv-x="1024" />

    
    <glyph glyph-name="huifu" unicode="&#59034;" d="M1024-96.032c0 0-98.112 554.688-597.312 554.688L426.688 672.032 0 288.032l426.688-358.4L426.688 175.712C697.6 175.712 882.688 152.032 1024-96.032L1024-96.032zM1024-96.032"  horiz-adv-x="1024" />

    
    <glyph glyph-name="guanlian" unicode="&#58887;" d="M928 0 416 0C380.656 0 352 28.656 352 64L352 448C352 483.344 380.656 512 416 512L512 512C529.68 512 544 497.664 544 480 544 462.32 529.68 448 512 448L416 448 416 64 928 64 928 448 768 448C750.32 448 736 462.32 736 480 736 497.664 750.32 512 768 512L928 512C963.344 512 992 483.344 992 448L992 64C992 28.656 963.344 0 928 0ZM608 256 512 256C494.336 256 480 270.32 480 288 480 305.68 494.336 320 512 320L608 320 608 704 96 704 96 320 256 320C273.68 320 288 305.68 288 288 288 270.32 273.68 256 256 256L96 256C60.656 256 32 284.656 32 320L32 704C32 739.344 60.656 768 96 768L608 768C643.344 768 672 739.344 672 704L672 320C672 284.656 643.344 256 608 256Z"  horiz-adv-x="1024" />

    
    <glyph glyph-name="jiantouarrow1" unicode="&#59052;" d="M714.19904 346.15296l-328.704-328.69376c-20.91008-20.91008-54.80448-20.91008-75.70432 0-20.89984 20.89984-20.89984 54.80448 0 75.70432L600.63744 384 309.80096 674.8364799999999c-20.89984 20.91008-20.89984 54.80448 0 75.70432 20.89984 20.91008 54.79424 20.91008 75.70432 0l328.704-328.69376c10.4448-10.45504 15.6672-24.14592 15.6672-37.84704S724.64384 356.59776 714.19904 346.15296z"  horiz-adv-x="1024" />

    
    <glyph glyph-name="jiantouarrow2" unicode="&#59068;" d="M294.13376 384c0 13.70112 5.23264 27.40224 15.6672 37.84704l328.704 328.69376c20.91008 20.91008 54.80448 20.91008 75.70432 0 20.89984-20.89984 20.89984-54.79424 0-75.70432L423.36256 384l290.83648-290.83648c20.89984-20.89984 20.89984-54.80448 0-75.70432-20.89984-20.91008-54.79424-20.91008-75.70432 0l-328.704 328.69376C299.35616 356.59776 294.13376 370.29888000000005 294.13376 384z"  horiz-adv-x="1024" />

    
    <glyph glyph-name="jiantouarrow3" unicode="&#59069;" d="M547.584 93.16351999999995c20.89984-20.89984 20.89984-54.80448 0-75.70432-20.89984-20.91008-54.79424-20.91008-75.70432 0l-328.704 328.69376c-10.4448 10.45504-15.6672 24.14592-15.6672 37.84704s5.23264 27.40224 15.6672 37.84704l328.704 328.69376c20.91008 20.91008 54.80448 20.91008 75.70432 0 20.89984-20.89984 20.89984-54.79424 0-75.70432L256.74752 384 547.584 93.16351999999995zM589.96736 384l290.83648 290.83648c20.89984 20.91008 20.89984 54.80448 0 75.70432-20.89984 20.91008-54.79424 20.91008-75.70432 0l-328.704-328.69376c-10.4448-10.45504-15.6672-24.14592-15.6672-37.84704s5.23264-27.40224 15.6672-37.84704l328.704-328.69376c20.91008-20.91008 54.80448-20.91008 75.70432 0 20.89984 20.89984 20.89984 54.80448 0 75.70432L589.96736 384z"  horiz-adv-x="1024" />

    
    <glyph glyph-name="zhanghu" unicode="&#58941;" d="M963.304273-86.126574c0-22.754101-18.255436-41.204869-40.78098-41.204869-22.52655 0-40.781987 18.450768-40.781987 41.204869l-0.358443 3.846217c0 1.630112 0.292997 3.194777 0.456109 4.792669-25.460549 180.860821-178.936705 313.768775-365.828637 315.853989-1.499219-0.03222-2.933999-0.228558-4.433219-0.228558s-2.935006 0.195331-4.400999 0.228558c-184.740265-2.086221-336.750428-132.025942-364.785526-309.757432 0.913225-3.488781 1.596885-7.107447 1.596885-10.888219l0.39167-3.878437c0-23.112544-18.549441-41.858323-41.433427-41.858323-22.852774 0-41.433427 18.744772-41.433427 41.858323l-0.03222 0.390663-0.782333 0c0.097666 1.206222 0.358443 2.380225 0.488329 3.586447 0 3.455554 0.521555 6.714771 1.303888 9.942774C83.710605 94.47347 194.319561 229.304533 344.830505 287.364292c-87.627303 56.721638-144.77283 156.964937-144.77283 271.486563 0 177.112269 136.232617 320.712104 311.551663 320.712104 175.286826 0 311.518436-143.599835 311.518436-320.712104 0-114.488399-57.081088-214.699479-144.676172-271.421117 149.467833-57.60365 259.555234-190.869041 281.984118-355.920096 1.532446-4.335553 2.54233-8.931883 2.54233-13.788991L963.304273-86.126574 963.304273-86.126574 963.304273-86.126574zM751.506574 558.753189c0 133.916832-107.447405 242.472793-239.99591 242.472793-132.548504 0-239.99591-108.588181-239.99591-242.472793 0-133.918845 107.447405-242.4738 239.99591-242.4738C644.025942 316.279389 751.506574 424.834343 751.506574 558.753189L751.506574 558.753189 751.506574 558.753189z"  horiz-adv-x="1024" />

    
    <glyph glyph-name="mima" unicode="&#58942;" d="M855.197395 440.552145l-564.738102 0.945456c-0.228561 75.30318-20.700345 192.006041 44.301496 262.842723 39.541998 43.1597 106.172962 87.59209 177.271431 87.59209 105.03318 0 183.562387-78.300647 221.572928-175.216399 11.083681-27.937763 20.831238-42.997593 44.334723-43.813162 58.905212-1.760018 55.31973 59.688561 44.301496 87.625317C767.312304 800.441515 664.267703 879.55773 512.03222 879.55773c-103.468496 0-160.482797-20.993345-221.572928-87.625317-93.493385-101.805138-88.863773-266.394978-88.635212-350.434813l-32.957035-0.945456c-30.805343 0-55.678178-24.350267-55.678178-54.308827l0-459.836823c0-30.120668 24.938282-54.407501 55.678178-54.407501l686.265909 0c30.772116 0 55.678178 24.319054 55.678178 54.407501L910.811132 386.243318C910.876579 416.234098 885.938297 440.552145 855.197395 440.552145L855.197395 440.552145 855.197395 440.552145 855.197395 440.552145zM823.60971 3.795919c0-12.126803-4.302377-22.524802-13.040039-31.033903-8.638988-8.572534-19.102434-12.875918-31.360131-12.875918L246.386357-40.113903c-12.257697 0-22.721143 4.237937-31.326904 12.875918-8.671208 8.573541-13.072259 18.9071-13.072259 31.033903L201.987194 311.005585c0 24.154933 19.885783 43.812155 44.399163 43.812155l532.82419 0c24.482167 0 44.399163-19.657222 44.399163-43.812155L823.60971 3.795919 823.60971 3.795919 823.60971 3.795919 823.60971 3.795919z"  horiz-adv-x="1024" />

    
    <glyph glyph-name="quxiao" unicode="&#58945;" d="M474.133828 819.318628c-261.931418 0-474.133828-212.297312-474.133828-474.133828 0-261.836515 212.20241-474.133828 474.133828-474.133828s474.133828 212.297312 474.133828 474.133828C948.267655 607.021316 735.970343 819.318628 474.133828 819.318628zM521.774977 258.728452 521.774977 374.225023c-57.321223 0-203.471362-1.328638-203.471362-158.487488 0-82.28063 55.80278-150.990176 130.016682-166.838925C329.217424 65.791288 237.066914 171.512882 237.066914 300.865246c0 240.293605 245.228545 242.286562 284.708063 242.286562L521.774977 641.470992l189.330862-192.08304L521.774977 258.728452z"  horiz-adv-x="1140" />

    
    <glyph glyph-name="xiajia2" unicode="&#58910;" d="M799.64307025 779.5078125L224.35958166 779.5078125C165.03039328 779.5078125 116.4921875 730.96562848 116.4921875 671.64041834l0-575.28348783c0-59.32521014 48.54218402-107.86474225 107.86739417-107.86474223l575.28348782 0c59.32521014 0 107.86474225 48.53820578 107.86474223 107.86474223L907.5078125 671.64041834C907.5078125 730.96960672 858.96960672 779.5078125 799.64307025 779.5078125L799.64307025 779.5078125zM871.55731801 96.35692974999995c0-19.05461085-7.55156662-37.03250962-21.21201173-50.69825854-13.66707527-13.66309702-31.63967022-21.21201173-50.69825855-21.21201174L224.35958166 24.446659469999986c-19.05858833 0-37.03516153 7.55156662-50.69825855 21.21201174-13.66574893 13.66707527-21.21201173 31.64364847-21.21201172 50.69825854L152.44931139 671.64041834c0 19.05858833 7.54891394 37.03516153 21.21201172 50.69825855 13.66044511 13.66574893 31.63967022 21.21201173 50.69825856 21.21201172l575.28348782 0c19.05461085 0 37.03250962-7.54891394 50.69825854-21.21201172 13.66309702-13.66044511 21.21201173-31.63701831 21.21201173-50.69825856l0-575.28348782L871.55731801 96.35692974999995zM735.82272147 324.49379018c-7.00790636 7.01055828-18.51758078 7.01055828-25.34647737 0l-121.88851149-121.88585957L588.58773261 554.78805228c0 39.7295925-32.18067779 71.91027028-71.91027028 71.91027027L300.94532592 626.6983225500001l0 0 0 0c-9.89062918 0-17.9765732-8.08992228-17.9765732-17.9765732 0-9.89062918 8.08594402-17.98055145 17.9765732-17.98055146l0 0 0 0 215.73213718 0c19.77462819 0 35.9531464-16.1785182 35.9531464-35.95314639L552.63060873 202.60527947000003l-121.8885115 121.88585957c-7.01055828 7.01055828-18.51492886 7.01055828-25.34647735 1e-8l0 0c-7.01055828-7.01055828-7.01055828-18.51492886 0-25.34647737l152.63048017-152.63313209 0 1e-8 0 0c1.61904522-1.61904522 3.59345807-2.87344073 5.57450108-3.7764461l0.17635786 0c0.36199779-0.17635786 0.90167979-0.35801953 1.26102568-0.54100756 0.18166168 0 0.18166168-0.17635786 0.35801954-0.17635786 0.36199779-0.18166168 0.72001733-0.18166168 1.07803766-0.3619978 0.17900977 0 0.36199779-0.17635786 0.53703007-0.17635785 0.36199779 0 0.72001733-0.17900977 1.07803766-0.17900978l0.53703009 0c1.26102567-0.18166168 2.33906256-0.18166168 3.60008823 0l0.53703009 0c0.35801953 0 0.71736543 0.17900977 1.07803765 0.17900978 0.17635786 0 0.35801953 0.17635786 0.54100756 0.17635785 0.35801953 0.17900977 0.71736543 0.17900977 1.07538575 0.3619978 0.18166168 0 0.18166168 0.17635786 0.36199779 0.17635786 0.35801953 0.18166168 0.89902789 0.36199779 1.25704742 0.54100756l0.18166169 0c1.97441286 0.90167979 3.95545587 2.15607531 5.57450108 3.7764461l0 0 0 0 152.62782828 152.63313208C742.83328052 306.15787187 742.83328052 317.47925442999997 735.82272147 324.49379018L735.82272147 324.49379018 735.82272147 324.49379018z"  horiz-adv-x="1024" />

    
    <glyph glyph-name="zhuye" unicode="&#58889;" d="M511.89 767.255c-201.858 0-365.49-163.632-365.49-365.49 0-201.857 163.632-365.489 365.49-365.489s365.489 163.632 365.489 365.489c0 201.858-163.631 365.49-365.489 365.49zM722.047 403.3c0-10.279-3.231-19.801-18.274-19.801h-36.549v-164.471c0-14.812-8.975-18.273-18.273-18.273h-91.373c0 0 0 114.858 0 127.911 0 5.881-10.494 18.275-18.274 18.275h-36.549c-7.334 0-18.274-11.663-18.274-18.275v-127.911c0 0-71.903 0-91.372 0-10.413 0-18.274 7.781-18.274 18.273l-0 164.472h-36.548c-11.226 0-18.274 3.516-18.274 20.701v3.632l189.293 191.695c2.213 2.168 5.354 3.265 9.316 3.265 4.471 0 7.879-1.115 10.119-3.301 95.219-93.238 193.31-192.516 193.31-192.516l-0-3.677z"  horiz-adv-x="1024" />

    
    <glyph glyph-name="quxiao1" unicode="&#58973;" d="M512 850.626603c-257.710456 0-466.626603-208.916147-466.626603-466.626603s208.915124-466.626603 466.626603-466.626603 466.626603 208.915124 466.626603 466.626603S769.710456 850.626603 512 850.626603zM754.945171 231.670639c22.561855-22.561855 22.561855-59.482743 0-82.044598l-20.511149-20.511149c-22.561855-22.561855-59.482743-22.561855-82.044598 0L506.030032 275.475308 359.670639 129.115915c-22.561855-22.561855-59.482743-22.561855-82.044598 0l-20.511149 20.511149c-22.561855 22.561855-22.561855 59.482743 0 82.044598l146.359392 146.359392L245.175979 536.329361c-22.561855 22.561855-22.561855 59.482743 0 82.044598l20.511149 20.511149c22.561855 22.561855 59.482743 22.561855 82.044598 0L506.030032 480.585779l158.298306 158.298306c22.561855 22.561855 59.482743 22.561855 82.044598 0l20.511149-20.511149c22.561855-22.561855 22.561855-59.482743 0-82.044598L608.585779 378.031055 754.945171 231.670639z"  horiz-adv-x="1024" />

    
    <glyph glyph-name="dingyue" unicode="&#59035;" d="M160.72704-49.41141332999996c-12.23338667 0-23.88423111 6.40796445-29.70965333 18.05880888-8.15559111 16.31118222-1.74762667 36.70016 14.56355555 44.85575112l340.20465778 174.18012444c1.16508445 0.58254222 1.74762667 1.16508445 2.91271111 1.16508444 15.14609778 7.57304889 34.36999111 7.57304889 50.09863111-0.58254222l2.33016889-1.16508444 338.45703111-174.18012444c16.31118222-8.15559111 22.71914667-28.54456889 14.56355556-44.85575112-8.15559111-16.31118222-28.54456889-22.71914667-44.85575111-14.56355555l-335.54432 173.01504c0 0 0 0-0.58254222 0l-336.70940445-172.43249778C170.63025778-48.24632888999997 165.38737778-49.41141332999996 160.72704-49.41141332999996zM645.40216889 607.11367111L378.59783111 607.11367111c-18.64135111 0-33.20490667 15.14609778-33.20490666 33.20490667 0 18.64135111 15.14609778 33.20490667 33.20490666 33.20490667l266.80433778 0c18.64135111 0 33.20490667-15.14609778 33.20490666-33.20490667C678.60707555 621.67722667 664.04352 607.11367111 645.40216889 607.11367111zM781.71704889 263.99630221999996l-133.40216889 0c-18.64135111 0-33.20490667 15.14609778-33.20490667 33.20490667s15.14609778 33.20490667 33.20490667 33.20490666l133.40216889 0c18.64135111 0 33.20490667-15.14609778 33.20490666-33.20490666S800.3584 263.99630221999996 781.71704889 263.99630221999996zM715.30723555 197.00394667c-18.64135111 0-33.20490667 15.14609778-33.20490666 33.20490666l0 133.40216889c0 18.64135111 15.14609778 33.20490667 33.20490666 33.20490667s33.20490667-15.14609778 33.20490667-33.20490667l0-133.40216889C748.51214222 212.15004445 733.36604445 197.00394667 715.30723555 197.00394667zM872.01109333-55.23683555000002c-18.64135111 0-33.20490667 15.14609778-33.20490666 33.20490666L838.80618667 703.23313778c0 9.32067555-7.57304889 16.89372445-16.89372445 16.89372444L202.08753778 720.12686222c-9.32067555 0-16.89372445-7.57304889-16.89372445-16.89372444l0-724.68252445c0-18.64135111-15.14609778-33.20490667-33.20490666-33.20490666-18.64135111 0-33.20490667 15.14609778-33.20490667 33.20490666L118.784 703.23313778c0 46.02083555 37.28270222 83.30353778 83.30353778 83.30353777l619.82492444 0c46.02083555 0 83.30353778-37.28270222 83.30353778-83.30353777l0-724.68252445C905.216-40.09073778000004 890.65244445-55.23683555000002 872.01109333-55.23683555000002z"  horiz-adv-x="1024" />

    
    <glyph glyph-name="xiaofeijilu" unicode="&#58964;" d="M827.50704594 270.99629625l159.756645 124.39406062-60.98872969 78.33089157 39.57892594 39.57892593L615.47928125 863.67478031 36.73534906 284.93084906l180.16872563-180.16872561 0-77.71690782 0.07003218 0c3.54191811-80.57672906 155.4318975-122.71999594 305.48759907-122.71999594s301.94568094 42.14326688 305.48759906 122.71999594l0.07003219 0L828.01933906 259.06774406l-0.111285 0c0.07387031 1.260585 0.111285 2.53076436 0.111285 3.81053625C828.01933906 265.62873563999995 827.84377814 268.33410188000005 827.50704594 270.99629625zM769.55753563 262.87924031c0-20.08206469-84.06876094-67.14007875-247.09486969-67.14007875s-247.09486969 47.058015-247.09486969 67.14007875c0 20.08206469 84.06876094 67.14007875 247.09486969 67.14007875S769.55753563 282.96130406 769.55753563 262.87924031zM905.22299468 405.60934875l-108.19256531-84.25007813c-4.06380469 3.42583687-8.47969031 6.72408094-13.22271468 9.89281313l100.81324876 100.81324875L905.22299468 405.60934875zM615.47928125 781.00570969l267.70553532-267.70553531L727.99179781 358.10715562999997c-56.90765625 20.10029156-131.44144313 30.37492594-205.53009094 30.37492593-151.83721406 0-305.55763219-43.14770625-305.55763218-125.60284125 0-1.27977188 0.03741469-2.54995125 0.111285-3.81053625l-0.111285 0 0-71.63655L119.40537875 284.93084906 615.47928125 781.00570969zM522.46170687-37.21201781000002c-163.02706781 0-247.09486969 47.058015-247.09486968 67.14007875l0 39.48586875c58.53471375-32.10942937 153.1745475-48.61983563 247.09486968-48.61983563s188.56111594 16.51040625 247.09486968 48.61983563l0-39.48586875C769.55753563 9.845996249999985 685.48877469-37.21201781000002 522.46170687-37.21201781000002zM522.46170687 79.25589654999999c-163.02706781 0-247.09486969 47.058015-247.09486968 67.14007876l0 39.49929938c58.53471375-32.10942937 153.1745475-48.61983563 247.09486968-48.61983564s188.56111594 16.51040625 247.09486968 48.61983564l0-39.49929938C769.55753563 126.31391155999995 685.48877469 79.25589654999999 522.46170687 79.25589654999999z"  horiz-adv-x="1024" />

    
    <glyph glyph-name="bangzhu" unicode="&#58995;" d="M391.60593955 540.49221094c19.32733385 43.18928009 54.79900241 68.64483362 113.10562682 68.98800751 62.0107067 0.35329148 97.77327209-21.93528433 115.53398054-59.64896394 9.50514944-20.18231626 12.25306768-39.61841968 12.07852926-59.52923298-0.0075888-0.80776455-0.0075888-0.80776455-0.01096133-1.54217314 0.36340988-12.23789008-3.23527534-28.44462113-14.47399897-44.31155082-9.97058386-14.07517548-24.84593591-25.64779834-45.82421246-33.84349144-62.80245154-24.54576443-76.94845422-48.37904297-76.08082379-97.99840091 0.06661093-3.81116602 0.08937652-5.54389727 0.08937652-7.64256803l0-39.80982157c0-8.29687473 6.72603388-15.02206485 15.02206485-15.02206485s15.02206485 6.72603388 15.02206486 15.02206485l0 39.80982157c0 2.33054462-0.02445227 4.18385056-0.0935928 8.16786832-0.65852215 37.65550122 6.53463199 49.7745033 56.97524542 69.48885554 26.42183597 10.32303242 46.02826154 25.57528528 59.40612872 44.4607932 15.55242434 21.95552032 20.53054934 44.37478921 20.01030826 61.74594882-0.00674506 0.38617547-0.00674506 0.38617547 0.00168667 1.21164726 0.07841519 8.94106301-0.29342642 17.08026362-1.75634059 27.42774745-2.19732276 15.54062009-6.40478266 30.77010654-13.18477947 45.16569031-22.77003076 48.35121817-69.23927444 77.31186411-142.88921493 76.89280381-70.64822571-0.41652988-116.41341522-33.25832611-140.35546416-86.7605202-13.57938667-30.34430118-17.90657831-60.87325918-17.54148176-83.83300517 0.26981708-8.93684674 7.19990003-15.45208567 15.49255846-15.19660327 8.29265844 0.25548322 14.80789737 7.18556533 14.55241499 15.47822461C376.37982563 488.36861289 380.13449829 514.85874646 391.60593955 540.49221094zM511.87605279 173.82768402m-30.04497344 0a29.36068726 29.36068726 0 1 1 60.0899469 0 29.36068726 29.36068726 0 1 1-60.0899469 0ZM902.45901849 384.1416536c0 215.71284073-174.87012578 390.5829657-390.5829657 390.58296569S121.2930871 599.8544943100001 121.2930871 384.1416536s174.87012578-390.5829657 390.58296569-390.5829657S902.45901849 168.42881368999997 902.45901849 384.1416536zM91.24811365 384.1416536c0 232.30659018 188.32134897 420.62793915 420.62793915 420.62793915s420.62793915-188.32134897 420.62793915-420.62793915-188.32134897-420.62793915-420.62793916-420.62793915S91.24811365 151.83506422999994 91.24811365 384.1416536z"  horiz-adv-x="1024" />

    
    <glyph glyph-name="zhuceyaoqing" unicode="&#58896;" d="M494.57341531 344.20042406000005c-124.42763813 0-225.67355344 101.22576937-225.67355344 225.65340657 0 124.40749219 101.24591531 225.63326062 225.67355344 225.63326062s225.63326062-101.22576937 225.63326063-225.63326062C720.20667594 445.42619344 619.00105344 344.20042406000005 494.57341531 344.20042406000005zM494.57341531 733.45554938c-90.22107 0-163.64201063-73.40079469-163.64201062-163.60171782 0-90.22107 73.42094063-163.62186469 163.64201062-163.62186468s163.60171781 73.40079469 163.60171782 163.62186468C658.17513313 660.05475469 584.79448531 733.45554938 494.57341531 733.45554938zM122.86575313-27.48709219c-17.12343 0-31.01577094 13.89234094-31.01577094 31.01577094 0 222.05968312 180.64360406 402.70328719 402.72343312 402.70328719 98.25754125 0 192.88106625-35.80196625 266.46317813-100.80173625 12.8428125-11.328 14.05447125-30.93518625 2.74661812-43.77799875-11.38843875-12.86295937-30.97547906-13.9930725-43.77799875-2.70536531-62.27425781 54.98512031-142.31854781 85.25355844-225.4317975 85.25355843-187.87326187 0-340.69189125-152.81862938-340.69189125-340.67174437C153.88248406-13.594750309999995 139.98918313-27.48709219 122.86575313-27.48709219zM901.13328781 78.50472562000004L689.190905 78.50472562000004c-17.12343 0-31.01577094 13.89234094-31.01577094 31.01577094s13.89234094 31.01577094 31.01577094 31.01577094l211.94238281 0c17.12343 0 31.01577094-13.89234094 31.01577094-31.01577094S918.25671781 78.50472562000004 901.13328781 78.50472562000004zM795.16257594-27.46694531000003c-17.12343 0-31.01577094 13.89234094-31.01577094 31.01577094L764.14680406 215.49216844c0 17.12343 13.89234094 31.01577094 31.01577094 31.01577093s31.01577094-13.89234094 31.01577094-31.01577093l0-211.94238282C826.17834687-13.574604379999982 812.28600594-27.46694531000003 795.16257594-27.46694531000003z"  horiz-adv-x="1024" />

    
    <glyph glyph-name="caozuo" unicode="&#59317;" d="M800.896736 488.084567l-2.261507 0c-16.712637 0-30.429033-4.801353-43.639916-12.976546-11.561313 33.718963-40.968064 58.008158-78.842673 58.008158-16.71366 0-32.677237-4.801353-45.886073-12.976546-11.562337 33.716916-40.98239 58.008158-78.859046 58.008158-14.772448 0-28.500101-3.701299-40.651862-10.203386l0 86.7559c0 47.254234-35.742039 85.560678-83.338057 85.560678-47.599088 0-86.182848-38.306444-86.182848-85.560678L341.234755 322.536136l-52.357462 52.142567c-33.657564 33.412994-93.226265 28.655643-121.881908 0-28.656667-28.656667-47.450708-86.335321-6.415107-127.370923l240.682641-239.104703c4.965082-4.928243 10.42442-9.04091 16.165168-12.516058 43.883463-35.798321 94.167706-56.990992 200.49843-56.990992 242.907309 0 265.402649 131.048685 265.402649 292.705482L883.329167 402.524912C883.33019 449.778122 848.495824 488.084567 800.896736 488.084567L800.896736 488.084567zM837.967026 231.405603c0-136.787386-0.652869-247.673869-220.042555-247.673869-92.937692 0-148.734486 20.722974-191.003172 62.685691L199.068871 272.785036c-20.159132 20.159132-15.08865 45.934169 1.414209 62.437028 16.501836 16.502859 46.791699 17.073864 62.733786 1.24741 0 0 39.97648-39.740096 74.417897-73.977875 26.064632-25.910113 48.959062-48.670489 48.959062-48.670489L386.593825 645.694187c0 22.3838 18.278295 40.528042 40.824801 40.528042 22.544459 0 37.977963-18.145266 37.977963-40.528042l0-274.692223 0.457418 0c-0.297782-1.455141-0.457418-2.960425-0.457418-4.503571 0-12.43317 10.154267-22.515806 22.679535-22.515806 12.524245 0 22.678512 10.080589 22.678512 22.515806 0 1.543146-0.158612 3.048429-0.457418 4.503571l0.457418 0L510.754636 483.580996c0 22.3838 16.311501 40.529065 38.858006 40.529065 0 0 39.944757 0.540306 39.944757-40.529065l0-148.60248 0.457418 0c-0.297782-1.457188-0.457418-2.961448-0.457418-4.503571 0-12.435217 10.154267-22.51683 22.678512-22.51683 12.525268 0 22.679535 10.080589 22.679535 22.51683 0 1.542122-0.158612 3.047406-0.457418 4.503571l0.457418 0L634.915447 438.54836c0 22.384823 16.050558 40.531112 38.598086 40.531112 0 0 40.774659-2.538823 40.774659-40.531112l0-130.590244 0.457418 0c-0.297782-1.455141-0.457418-2.961448-0.457418-4.503571 0-12.435217 10.154267-22.515806 22.678512-22.515806 12.526291 0 22.110577 10.079566 22.110577 22.515806 0 1.542122-0.149403 3.048429-0.431835 4.503571l0.431835 0 0 89.161692c0 22.381753 16.819061 40.529065 39.364543 40.529065 0 0 39.525202 1.598404 39.525202-40.529065C837.967026 397.120832 837.967026 267.825071 837.967026 231.405603L837.967026 231.405603zM307.559794 527.131885l0 75.66633c-7.201006 16.141632-11.290137 33.974789-11.290137 52.792367 0 71.704089 58.126862 129.830951 129.830951 129.830951 71.703065 0 129.830951-58.126862 129.830951-129.830951 0-9.794064-1.157359-19.303648-3.235694-28.466332 16.32992-0.636496 31.063483-7.4159 41.788755-18.298761 4.157693 14.904455 6.604418 30.523177 6.604418 46.765093 0 96.642061-78.346369 174.989453-174.989453 174.989453-96.644107 0-174.989453-78.346369-174.989453-174.989453C251.111155 604.742497 272.930089 559.105087 307.559794 527.131885L307.559794 527.131885z"  horiz-adv-x="1024" />

    
    <glyph glyph-name="liuchengmoxing" unicode="&#59345;" d="M613.68389 561.462784l149.575644 0 0-299.500235 49.858548 0L813.118082 561.462784l0 49.918923L613.68389 611.381707 613.68389 832.360588 65.240887 832.360588l0-470.566332 548.44198 0L613.682867 561.462784zM563.825342 411.708062 115.099435 411.708062 115.099435 782.447804 563.825342 782.447804 563.825342 411.708062zM613.68389 261.959479l0-149.751652L464.108247 112.207827 464.108247 261.959479 65.240887 261.959479l0-324.465836 398.86736 0L464.108247 62.290951l149.575644 0 0-124.798331 349.008812 0L962.692702 261.959479 613.68389 261.959479zM414.249699 112.207827l0-49.915853 0-74.879408L115.099435-12.587434 115.099435 212.040557l299.150264 0L414.249699 112.207827zM912.834154-12.587434 663.542438-12.587434 663.542438 212.040557 912.834154 212.040557 912.834154-12.587434z"  horiz-adv-x="1024" />

    
    <glyph glyph-name="pinglun" unicode="&#58893;" d="M202.50458983 624.47402343Zm0 0M207.18124999 623.12666016Zm2e-8 0M208.8546875 623.03173828Zm0 0M208.8546875 659.71464844Zm0 0M199.73339844 656.58222656Zm0 0M204.003125 658.89199219Zm0 0M202.50458983 466.80878906Zm0 0M199.73339844 498.91171875a15.75852539 15.75852539 0 0 0 2.77124414 1.69121778c-0.97737012-0.46037461-1.90234863-1.03504395-2.77124414-1.69121778Zm0 0M207.18124999 465.45966797Zm2e-8 0M208.8546875 465.36210937Zm0 0M208.8546875 502.04501953Zm0 0M204.003125 501.22148437Zm0 0M204.003125 343.55185546999996Zm0 0M199.73339844 341.24121094Zm0 0M208.8546875 344.37451172Zm0 0M752.13916016 435.65595703H388.54794922c-10.8309375 0-19.59240234 10.11708983-19.59240234 22.62445314 0 12.50261719 8.76139453 22.62770508 19.59240234 22.62770506h363.59121094c10.83462891 0 19.59609375-10.12508789 19.59609375-22.62770506 0.00370459-12.50736329-8.76139453-22.62445313-19.59609375-22.62445314Zm0 0M752.13916016 252.53759765999996H388.54794922c-10.8309375 0-19.59240234 10.11339844-19.59240234 22.62445312 0 12.50261719 8.76139453 22.62392578 19.59240234 22.62392577h363.59121094c10.83462891 0 19.59609375-10.12139648 19.59609375-22.62392577 0-12.51105469-8.76139453-22.62445313-19.59609375-22.62445312Zm0 0M570.98691406-13.727929689999996a19.91355469 19.91355469 0 0 0-11.87604492 3.92694434L433.08300781 83.90449219000004H222.93564453c-23.439375 0-42.52271484 19.08650391-42.52271484 42.52957031V612.65888672c0 23.439375 19.08333984 42.53009766 42.52271484 42.53009766h694.82021485c23.43990234 0 42.52640625-19.09072266 42.52640625-42.53009766v-486.225c0-23.44306641-19.08650391-42.52957031-42.52640625-42.52957031h-227.38886719L584.06416016-8.827148439999974a19.89131836 19.89131836 0 0 0-13.0772461-4.90113281ZM222.93564453 615.3764648399999c-1.49489648 0-2.71779785-1.22661035-2.71779785-2.71779784v-486.225c0-1.49859668 1.22290135-2.72149805 2.71779785-2.72149805h216.73916016c4.27671386 0 8.43331641-1.38218555 11.87657226-3.9264082l118.44667969-88.06552735 99.82441406 87.09117188a19.91039062 19.91039062 0 0 0 13.08155273 4.90060547h234.85166016c1.49859668 0 2.72202539 1.22661035 2.72202539 2.72149804V612.65888672c0 1.49859668-1.22607422 2.71779785-2.72202539 2.71779785H222.93564453Zm0 0M191.62460938 276.46406249999995H103.75173828C82.19612305 276.46406249999995 64.64583301 294.2109375 64.64583301 316.01572266000005V738.41103516c0 21.80794922 17.55035156 39.55517578 39.1058789 39.55517578h589.45078125c21.55930663 0 39.09111328-17.74713867 39.09111328-39.55517578v-103.12822266h-39.80487305V738.41103516l-588.73710936-0.25294131 0.70167392-422.1421875 87.17106445 0.25347041v-39.80487304h0.00052911Zm0 0"  horiz-adv-x="1024" />

    
    <glyph glyph-name="xiajia1" unicode="&#58980;" d="M327.59296 208.25088l511.36-1.28512c23.89504 1.47456 43.82208 17.0752 49.68448 39.38304l99.29216 416.4864c3.8912 14.69952 0.71168 30.13632-8.72448 42.37312-10.25536 13.30688-26.84928 21.248-44.42112 21.248l-203.86304 0c-13.79328 0-24.98048-11.17696-24.98048-24.95488 0-13.78304 11.1872-24.96512 24.98048-24.96512l203.86816 0c3.24608 0 4.73088-1.53088 4.69504-1.53088l-99.2512-416.37376c-0.23552-0.44544-1.69472-1.68448-2.75968-1.80736l-489.42592 1.27488L245.39648 676.54656l213.34016 0c13.79328 0 24.97536 11.17696 24.97536 24.96 0 13.77792-11.18208 24.96-24.97536 24.96l-225.5872 0-27.776 113.22368L59.10528 839.69024c-13.79328 0-24.97536-11.17184-24.97536-24.96 0-13.78304 11.18208-24.96 24.97536-24.96l107.06944 0 131.584-536.35584c-40.72448-12.99968-70.30784-51.16928-70.30784-96.11264 0-30.23872 13.40416-57.39008 34.56-75.89888-21.15584-18.5088-34.56-45.66016-34.56-75.89376 0-55.64928 45.29664-100.90496 100.97152-100.90496 55.68 0 100.97664 45.25568 100.97152 100.90496 0 18.5856-5.07904 36.00384-13.88544 50.9696l360.82688 0c-8.81152-14.96576-13.89056-32.384-13.89056-50.9696 0-55.64928 45.29664-100.90496 100.97152-100.90496 55.68 0 100.97152 45.25568 100.97152 100.90496 0 55.62368-45.29152 100.8896-100.97152 100.8896L328.4224 106.39872c-0.51712 0-1.024-0.03072-1.536-0.04096-27.42272 0.81408-49.47968 23.34208-49.47968 50.944C277.40672 185.13408 299.84256 207.80032 327.59296 208.25088L327.59296 208.25088zM863.4112 56.47872c28.13952 0 51.0208-22.86592 51.0208-50.97472 0-28.11392-22.88128-50.99008-51.0208-50.99008-28.1344 0-51.01056 22.87616-51.01056 50.99008C812.40064 33.6128 835.2768 56.47872 863.4112 56.47872L863.4112 56.47872zM326.97344 56.44288c0.4864-0.01024 0.96256-0.04096 1.44896-0.04096 0.32768 0 0.64512 0.03584 0.96768 0.04608 27.69408-0.51712 50.048-23.15776 50.048-50.944 0-28.11904-22.88128-50.99008-51.0208-50.99008-28.1344 0-51.01568 22.87104-51.01568 50.99008C277.40672 33.1264 299.50976 55.66976 326.97344 56.44288L326.97344 56.44288zM472.99584 598.56384l106.24-102.5536c0.23552-0.22528 0.50176-0.42496 0.7424-0.64512 0.31232-0.27136 0.6144-0.54784 0.93696-0.80896 0.3072-0.256 0.62464-0.47616 0.9472-0.71168 0.33792-0.25088 0.67072-0.49664 1.024-0.73216 0.32256-0.20992 0.64-0.39424 0.96256-0.58368 0.37888-0.22528 0.75264-0.45056 1.14176-0.65024 0.3072-0.16384 0.6144-0.30208 0.93184-0.45056 0.42496-0.19968 0.8448-0.40448 1.28-0.57856 0.28672-0.10752 0.57344-0.20992 0.86016-0.31232 0.47104-0.17408 0.9472-0.34816 1.4336-0.49664 0.256-0.0768 0.52224-0.128 0.768-0.19456 0.52736-0.13312 1.0496-0.27136 1.58208-0.37888 0.23552-0.04608 0.48128-0.07168 0.7168-0.10752 0.55296-0.09216 1.10592-0.18432 1.664-0.24064 0.20992-0.01536 0.4096-0.01024 0.61952-0.03072 0.57856-0.03584 1.16224-0.08704 1.75616-0.08704 0.58368 0 1.15712 0.0512 1.73056 0.08704 0.21504 0.01536 0.42496 0.01024 0.64 0.03072 0.55296 0.0512 1.1008 0.14848 1.6384 0.2304 0.25088 0.04096 0.50176 0.06656 0.74752 0.11776 0.52736 0.1024 1.03936 0.23552 1.55648 0.36864 0.26624 0.07168 0.53248 0.128 0.79872 0.2048 0.48128 0.14336 0.95232 0.31744 1.41312 0.4864 0.29696 0.10752 0.58368 0.2048 0.88064 0.32256 0.43008 0.17408 0.83968 0.37376 1.25952 0.57344 0.32256 0.14848 0.64 0.29184 0.95744 0.4608 0.37376 0.19968 0.7424 0.41984 1.11616 0.64 0.32768 0.19456 0.66048 0.384 0.98304 0.59904 0.34304 0.22528 0.67584 0.47616 1.00352 0.7168 0.32256 0.23552 0.65024 0.46592 0.96256 0.7168 0.31744 0.256 0.6144 0.53248 0.91648 0.80384 0.25088 0.22016 0.512 0.42496 0.75264 0.65536l106.23488 102.5536c9.92256 9.57952 10.19904 25.3696 0.60928 35.28704-4.89984 5.07392-11.42784 7.61344-17.96608 7.61344-6.25152 0-12.49792-2.3296-17.3568-7.00928l-63.90272-61.68064L621.57824 829.20448c0 13.77792-11.1872 24.96-24.98048 24.96s-24.97536-11.18208-24.97536-24.96l0-256.42496L507.70944 634.46528c-9.93792 9.59488-25.72288 9.32352-35.32288-0.60416C462.7968 623.93344 463.0784 608.14848 472.99584 598.56384L472.99584 598.56384zM596.59264 537.7536 596.59264 537.7536z"  horiz-adv-x="1024" />

    
    <glyph glyph-name="topic" unicode="&#59183;" d="M342.646154 200.861538c-1.969231 5.907692-7.876923 11.815385-13.784616 13.784616l-43.323076 11.815384c-7.876923 1.969231-17.723077-1.969231-21.661539-9.846153L189.046154 88.615385c-19.692308-35.446154-7.876923-47.261538 27.569231-27.569231l129.96923 74.830769c7.876923 3.938462 11.815385 13.784615 9.846154 21.661539l-13.784615 43.323076z m338.707692 366.276924c1.969231-5.907692 7.876923-11.815385 13.784616-13.784616l43.323076-11.815384c7.876923-1.969231 17.723077 1.969231 21.661539 9.846153l74.830769 129.969231c19.692308 35.446154 7.876923 47.261538-27.569231 27.569231l-129.96923-74.830769c-7.876923-3.938462-11.815385-13.784615-9.846154-21.661539l13.784615-45.292307z m-417.476923-17.723077c3.938462-7.876923 13.784615-11.815385 21.661539-9.846154l43.323076 11.815384c5.907692 1.969231 11.815385 7.876923 13.784616 13.784616l11.815384 43.323077c1.969231 7.876923-1.969231 17.723077-9.846153 21.661538L216.615385 706.953846c-35.446154 19.692308-47.261538 7.876923-27.569231-27.569231l74.830769-129.96923z m496.246154-330.83077c-3.938462 7.876923-13.784615 11.815385-21.661539 9.846154l-43.323076-11.815384c-5.907692-1.969231-11.815385-7.876923-13.784616-13.784616l-11.815384-45.292307c-1.969231-7.876923 1.969231-17.723077 9.846153-21.661539l129.969231-74.830769c35.446154-19.692308 47.261538-7.876923 27.569231 27.569231l-76.8 129.96923z m198.892308 181.169231l-322.953847 86.646154c-11.815385 1.969231-19.692308 11.815385-21.661538 21.661538L527.753846 831.015385c-9.846154 33.476923-23.630769 33.476923-33.476923 0l-86.646154-322.953847c-1.969231-11.815385-11.815385-19.692308-21.661538-21.661538L64.984615 399.753846c-33.476923-9.846154-33.476923-23.630769 0-33.476923l322.953847-86.646154c11.815385-1.969231 19.692308-11.815385 21.661538-21.661538l86.646154-322.953846c9.846154-33.476923 23.630769-33.476923 33.476923 0l86.646154 322.953846c1.969231 11.815385 11.815385 19.692308 21.661538 21.661538l322.953846 86.646154c31.507692 9.846154 31.507692 25.6-1.96923 33.476923zM512 305.230769c-43.323077 0-78.769231 35.446154-78.769231 78.769231s35.446154 78.769231 78.769231 78.769231 78.769231-35.446154 78.769231-78.769231-35.446154-78.769231-78.769231-78.769231z"  horiz-adv-x="1024" />

    
    <glyph glyph-name="xiazai" unicode="&#58944;" d="M777.4816-7.600000000000023H246.51733333c-59.3312 0-107.61066667 48.272-107.61066666 107.61066667V527.0944c0 59.3312 44.86613333 107.61066667 100.0256 107.61066667h68.26666666v-63.50933334h-68.26666666c-19.78986667 0-36.50773333-20.192-36.50773334-44.09386666V100.01066666999998c0-24.3104 19.7824-44.0928 44.0928-44.0928H777.48266667c24.3104 0 44.0928 19.7824 44.0928 44.0928V527.0944c0 23.9008-16.71786667 44.0928-36.50773334 44.0928h-68.26666666v63.5104h68.26666666c55.152 0 100.0256-48.272 100.0256-107.61066667v-427.0912c0-59.32373333-48.27946667-107.59573333-107.61066666-107.59573333zM692.23893333 441.04853333c-11.3248 12.3488-30.52266667 13.17546667-42.864 1.8432l-107.03466666-98.19733333V783.66186667c0 16.75626667-13.58506667 30.34133333-30.34026667 30.34133333s-30.34026667-13.58506667-30.34026667-30.34133333v-437.4368l-101.64906666 96.33066666c-12.16 11.53066667-31.3728 11.00693333-42.88746667-1.152-11.5296-12.1664-11.00586667-31.36533333 1.15306667-42.8864L491.1328 253.664c0.144-0.13653333 0.31146667-0.21973333 0.45546667-0.35626667 1.25866667-1.15306667 2.60266667-2.2304 4.0576-3.16373333 0.06826667-0.0448 0.12906667-0.10666667 0.19733333-0.144 1.25226667-0.78933333 2.57173333-1.48693333 3.94453333-2.09386667 0.17493333-0.07466667 0.35626667-0.09813333 0.52266667-0.1664 1.32053333-0.55466667 2.67093333-0.9408 4.04373333-1.29706666 0.58453333-0.15146667 1.1456-0.37973333 1.72906667-0.4928a30.31466667 30.31466667 0 0 1 5.90186667-0.608c1.93386667 0 3.86133333 0.20586667 5.76426666 0.5696 0.6752 0.12906667 1.328 0.3872 1.99466667 0.56106666 1.2064 0.32 2.40533333 0.62933333 3.56586667 1.09226667 0.76586667 0.304 1.4784 0.72853333 2.2144 1.1008 1.024 0.5152 2.04053333 1.01546667 3.0112 1.64586667 0.70613333 0.46186667 1.35786667 1.01653333 2.03306666 1.5392 0.6368 0.50133333 1.33546667 0.91093333 1.94133334 1.46453333l157.8784 144.85333333c12.3488 11.33333333 13.184 30.5312 1.85066666 42.88z"  horiz-adv-x="1024" />

    
    <glyph glyph-name="wangluo" unicode="&#58894;" d="M909.989 552.719c-21.76 51.446-52.904 97.643-92.568 137.307-39.663 39.664-85.86 70.808-137.306 92.568-53.28 22.536-109.858 33.962-168.164 33.962S397.067 805.13 343.787 782.594c-51.446-21.76-97.643-52.904-137.307-92.568-39.664-39.664-70.808-85.86-92.568-137.307-22.536-53.28-33.962-109.858-33.962-168.164s11.426-114.884 33.962-168.164c21.76-51.445 52.904-97.643 92.568-137.306 39.664-39.664 85.86-70.809 137.307-92.568 53.28-22.535 109.858-33.962 168.164-33.962s114.884 11.427 168.164 33.962c51.445 21.76 97.643 52.904 137.306 92.568 39.664 39.663 70.809 85.86 92.568 137.306 22.535 53.28 33.962 109.858 33.962 168.164s-11.427 114.884-33.962 168.164zM543.951 519.97c17.57 0.243 35.095 0.683 52.536 1.368a1990.762 1990.762 0 0 1 91.131 5.678c10.157-34.378 16.643-71.314 19.389-110.46H543.951V519.97z m0 64.069V732.59c17.617-12.176 39.372-29.845 61.074-54.197 23.42-26.28 43.109-56.138 58.784-89.019-41.937-3.147-82.117-4.783-119.858-5.335z m-64 144.763v-144.705a2038.572 2038.572 0 0 0-103.41 4.309 1929.6 1929.6 0 0 0-11.183 0.786c15.195 31.915 34.175 60.991 56.676 86.711 20.284 23.185 40.722 40.49 57.917 52.899zM370.842 524.646a2124.301 2124.301 0 0 1 109.109-4.606v-103.484H322.25c2.742 39.079 9.208 75.96 19.335 110.285 9.453-0.776 19.21-1.512 29.257-2.195z m-112.731-108.09H145.342c3.916 45.757 16.208 89.778 36.139 130.276 20.257-3.578 52.836-8.759 95.407-13.641-9.902-36.699-16.182-75.682-18.777-116.635z m-0.859-64c1.975-39.144 9.712-78.242 23.101-116.799-44.093-4.976-77.797-10.319-98.621-13.992-20.08 40.64-32.458 84.841-36.39 130.792h111.91z m64.098 0h158.601v-104.048c-36.37-0.602-72.818-2.13-109.109-4.601-8.41-0.573-16.612-1.182-24.609-1.821-14.322 36.523-22.659 73.543-24.883 110.47z m158.601-168.103v-131.712c-16.974 15.877-36.574 35.962-56.038 59.735-18.064 22.064-33.892 44.698-47.379 67.668a2038.38 2038.38 0 0 0 103.417 4.309z m64-136.665V184.513c34.387-0.503 70.782-1.903 108.68-4.527-13.467-22.915-29.263-45.496-47.286-67.509-21.547-26.32-43.262-48.119-61.394-64.689z m52.536 199.426a2063.187 2063.187 0 0 1-52.536 1.384V352.556h163.958c-2.227-36.975-10.582-74.045-24.939-110.615a1994.972 1994.972 0 0 1-86.483 5.273z m175.521 105.342H878.56c-3.928-45.898-16.283-90.051-36.322-130.652a1822.84 1822.84 0 0 1-93.476 13.439c13.478 38.691 21.264 77.929 23.246 117.213z m-0.859 64c-2.605 41.111-8.924 80.238-18.891 117.061a1821.491 1821.491 0 0 1 90.233 13.075c19.89-40.46 32.158-84.432 36.07-130.136H771.149z m1.017 228.215a373.188 373.188 0 0 0 34.046-39.155 1772.853 1772.853 0 0 0-75.117-9.98c-19.529 46.785-45.825 88.91-78.291 125.338a423.863 423.863 0 0 1-5.386 5.927c46.185-18.263 88.573-45.955 124.748-82.13zM384.81 730.077a420.788 420.788 0 0 1-8.355-9.102c-32.552-36.525-58.904-78.775-78.449-125.71-32.357 3.484-59.48 7.244-80.226 10.469a373.386 373.386 0 0 0 33.956 39.037c38.338 38.338 83.654 67.152 133.074 85.306zM251.736 124.341a373.444 373.444 0 0 0-33.584 38.548c22.526 3.498 52.529 7.614 88.626 11.328 18.229-35.542 41.31-70.356 68.867-103.808a678.068 678.068 0 0 1 35.727-39.995c-59.757 16.875-114.524 48.814-159.636 93.927z m368.249-91.745a677.032 677.032 0 0 1 33.629 37.814c27.469 33.344 50.487 68.043 68.689 103.466a1780.315 1780.315 0 0 0 83.528-10.88 373.34 373.34 0 0 0-33.665-38.654c-43.23-43.232-95.324-74.373-152.181-91.746z"  horiz-adv-x="1024" />

    
    <glyph glyph-name="zhongfa" unicode="&#58902;" d="M273.51674711 102.48922276999997c-150.82316165 150.84158443-150.82316165 401.82665234 1e-8 552.66823677 144.06218734 144.04376455 382.42799757 149.51518024 534.24596256 18.4222742v73.68909834c0 15.27206529 6.70570827 32.1100248 21.95935155 32.11002479s33.3074726-16.83795875 33.30747182-32.11002479v-147.37819668c3.03967529-4.73452437-6.76097509-21.75670632-13.76143865-28.73874788-11.84552233-11.86394511-28.48083661-8.29002374-41.50538472-8.1058013h-139.10659495a27.63341168 27.63341168 0 0 0 0 55.26682416h115.2497491c-131.90348617 127.39002826-343.37277526 130.17179228-473.54456755 0-131.57188454-131.57188454-131.57188454-347.40725391 0-478.97913845 131.57188454-131.57188454 346.33876173-133.80098047 477.91064704-2.21067315a24.68584799 24.68584799 0 0 0 34.91021006-34.92863285c-150.82316165-150.82316165-398.84224386-150.52840558-549.66540626 0.29475684z"  horiz-adv-x="1024" />

    
    <glyph glyph-name="fabu" unicode="&#58892;" d="M396.826211 75.924168H214.71592c-19.01867 0-34.478314 15.543603-34.478315 34.808006V697.043723c0 19.231638 15.573296 34.808006 34.808006 34.808006h586.310525c19.186587 0 34.808006-15.554866 34.808006-34.441455v-136.278113c0-13.253172 10.743629-23.997824 23.997824-23.997824 13.253172 0 23.997824 10.743629 23.997824 23.997824v136.279137c0 45.437983-37.154751 82.436079-82.80263 82.436079H215.044587c-45.743101 0-82.80263-37.066697-82.80263-82.80263v-586.310525c0-45.713408 36.889564-82.80263 82.472939-82.80263h182.110292c13.253172 0 23.997824 10.743629 23.997824 23.997824 0 13.252148-10.743629 23.994753-23.996801 23.994752zM860.160942 134.581535c-13.253172 0-23.997824-10.743629-23.997824-23.997824 0-19.202969-15.458621-34.660566-34.787528-34.660566h-2.023197c-13.253172 0-23.997824-10.743629-23.997825-23.997825 0-13.253172 10.743629-23.997824 23.997825-23.997824h2.023197c45.83525 0 82.782152 36.94383 82.782152 82.655191 0 13.256243-10.743629 23.998848-23.9968 23.998848zM691.846481 610.393332c0 13.345321-10.782536 23.997824-24.08383 23.997824H267.980482c-13.452829 0-24.083831-10.743629-24.08383-23.997824 0-13.345321 10.782536-23.997824 24.08383-23.997824h399.782169c13.452829 0 24.083831 10.744653 24.08383 23.997824zM267.94567 442.411634a23.945606 23.945606 0 0 1-24.049018-23.997824c0-13.345321 10.767178-23.997824 24.049018-23.997825h271.865103a23.945606 23.945606 0 0 1 24.049019 23.997825c0 13.345321-10.767178 23.997824-24.049019 23.997824H267.94567zM978.482154 362.691923L844.815973 496.358104c-12.534404 12.534404-32.766378 12.577407-45.217848 0.125938L492.823652 189.708545c-12.395156-12.395156-22.545955-36.874206-22.545955-54.549539v-82.885565c0-35.35988 28.707697-64.120818 64.120818-64.120818h82.885565c17.956901 0 42.098069 10.094485 54.549539 22.545955l306.774473 306.774473c12.394132 12.39618 12.395156 32.697778-0.125938 45.218872z m-340.585214-318.054618c-3.526261-3.526261-15.490361-8.489033-20.611836-8.489034H534.399539c-8.882205 0-16.126194 7.249108-16.126194 16.126194v82.885565c0 4.924888 5.079495 17.203321 8.489034 20.611836L737.843506 366.852992l111.13968-111.129441-211.086246-211.086246z m245.023949 245.022925L771.780185 400.791719l50.363895 50.363896 111.135585-111.135585-50.358776-50.3598z"  horiz-adv-x="1024" />

    
    <glyph glyph-name="publish" unicode="&#58957;" d="M920 676.3v-700h-816v700h816M960 716.3h-896v-780h896v780zM293.9 831.7h-40v-200h40v200zM765.2 831.7h-40v-200h40v200zM960 548.3h-896v-40h896v40zM512.5 408.2l-198-198 28.3-28.3 149.7 149.7v-363.9h40v363.9l149.7-149.7 28.3 28.3-198 198z"  horiz-adv-x="1024" />

    
    <glyph glyph-name="message" unicode="&#59359;" d="M225.6 542.4v-43.2c0-9.6 8-19.2 19.2-19.2h504c9.6 0 19.2 8 19.2 19.2V678.4c0 9.6-8 19.2-19.2 19.2H243.2c-9.6 0-19.2-8-19.2-19.2v-11.2L164.8 608c-1.6-1.6-1.6-3.2 0-3.2l60.8-62.4z m32 110.4v11.2h476.8V512H257.6v43.2l-9.6 9.6-40 40 38.4 38.4 11.2 9.6zM281.6 400v-120h-36.8c-9.6 0-19.2-8-19.2-19.2v-11.2l-59.2-59.2c-1.6-1.6-1.6-3.2 0-3.2l59.2-59.2v-43.2c0-9.6 8-19.2 19.2-19.2h504c9.6 0 19.2 8 19.2 19.2v120h49.6c9.6 0 19.2 8 19.2 19.2v43.2l59.2 59.2c1.6 1.6 1.6 3.2 0 3.2l-59.2 59.2V400c0 9.6-8 19.2-19.2 19.2H299.2c-9.6 0-17.6-8-17.6-19.2z m568-72L809.6 288l-9.6-9.6v-43.2H323.2c-6.4 0-11.2 4.8-11.2 11.2v140.8H800v-11.2l9.6-9.6 40-38.4z m-116.8-230.4H257.6v43.2l-9.6 9.6-40 38.4 38.4 38.4 9.6 9.6v11.2h40v-1.6c0-14.4 11.2-27.2 27.2-27.2h409.6v-121.6z"  horiz-adv-x="1024" />

    
    <glyph glyph-name="guanli1" unicode="&#58888;" d="M875.358 274.839c-45.452 0-82.201-36.748-82.201-81.233 0-45.453 36.749-81.234 82.201-81.234s82.201 36.748 82.201 81.234c0 44.485-36.749 81.233-82.201 81.233zM492.4 830.902c-45.453 0-82.201-36.748-82.201-81.233 0-45.453 36.748-81.234 82.201-81.234 45.452 0 82.201 36.748 82.201 81.234 0 45.452-36.749 81.233-82.201 81.233zM150.058 274.839c-45.452 0-82.201-36.748-82.201-81.233 0-45.453 36.748-81.234 82.201-81.234 45.452 0 82.201 36.748 82.201 81.234 0 44.485-36.749 81.233-82.201 81.233z m602.483-223.392c-67.695-51.254-148.928-78.332-234.031-78.332-97.673 0-190.512 35.781-263.042 101.542-7.737 6.769-19.341 5.802-26.111-0.967-2.901-3.869-4.835-7.737-4.835-12.572s1.935-9.671 5.803-12.571c78.332-71.563 180.841-111.213 287.218-111.213 47.386 0 92.838 7.737 137.323 22.243 42.551 14.506 82.201 35.781 118.95 62.859 3.868 2.902 6.769 6.77 6.769 11.606 0.968 4.835-0.967 9.671-3.867 13.538-4.835 7.736-16.441 9.669-24.177 3.867zM318.328 697.448c3.868 2.901 6.769 6.769 8.704 11.604 0.967 4.835 0 9.671-1.935 13.539-4.835 8.704-16.44 11.604-25.143 5.802-61.892-36.748-114.114-89.936-149.895-152.796-36.749-64.794-57.057-138.291-57.057-212.755 0-9.671 7.737-18.374 18.374-18.374s18.374 7.736 18.374 18.374c-0.967 138.291 69.629 263.043 188.578 334.606z m555.096-99.609c-45.453 67.695-108.312 121.85-181.809 154.731-8.704 3.868-20.308 0-24.177-8.704-1.934-4.835-1.934-9.671 0-13.538 1.934-4.835 4.835-7.737 9.671-9.671 140.225-62.859 231.13-202.117 231.13-356.847 0-9.671 7.736-18.374 18.375-18.374 10.637 0 18.373 7.737 18.373 18.374-0.967 83.167-25.144 164.401-71.563 234.029z"  horiz-adv-x="1024" />

    
    <glyph glyph-name="web-icon-" unicode="&#59085;" d="M831.808 26.816V724.832l-97.856 65.312-356.704-159.2v-123.2l-197.12-68.64v-412.288H160v-48.992h64.352V410.528l261.472 85.696v-518.4h181.024v53.056h-40.224V504.416l-94.912 57.152-106.24-36.992V602.4l257.472 114.304v-738.848H864v48.992h-32.192v-0.032zM256.544 300.32l189.056 61.216v81.632l-189.056-65.312v-77.536z m0-106.144l189.056 40.832v81.632l-189.056-48.992v-73.472z m0-110.208l189.056 24.512v81.632l-189.056-28.576v-77.568z m0-106.112l189.056 4.096v81.632l-189.056-8.192v-77.536z"  horiz-adv-x="1024" />

    
    <glyph glyph-name="set" unicode="&#58904;" d="M787.625 265.171875l-5.625-11.25 7.03125-10.546875 68.90625-101.953125 2.8125 27.421875-122.34375-118.828125 26.015625 2.8125-111.796875 66.796875-9.140625 5.625-9.84375-4.21875c-7.03125-2.8125-14.0625-5.625-21.796875-8.4375l-11.953125-4.21875-2.8125-11.953125-24.609375-115.3125 21.09375 16.875H420.59375l21.09375-16.171875-30.234375 120.9375-2.8125 10.546875-10.546875 4.21875c-6.328125 2.8125-12.65625 4.921875-18.984375 8.4375l-10.546875 4.921875-9.84375-6.328125-105.46875-67.5 26.71875-2.8125-122.34375 119.53125 3.515625-26.71875 68.203125 108.984375 6.328125 9.84375-4.921875 10.546875c-3.515625 7.03125-6.328125 14.765625-8.4375 21.796875l-4.21875 11.25-11.953125 2.109375-118.125 24.609375 16.875-21.09375v168.75l-16.171875-21.09375 124.453125 29.53125 10.546875 2.8125 4.21875 10.546875c2.8125 7.03125 6.328125 14.765625 9.84375 21.796875l5.625 11.25-7.03125 10.546875-64.6875 97.03125-2.8125-27.421875 121.640625 120.234375-26.71875-3.515625L371.375 670.171875l9.140625-5.625 9.84375 4.21875c5.625 2.109375 11.953125 4.921875 17.578125 7.03125l11.25 3.515625 2.8125 11.25 28.828125 116.71875-21.09375-16.171875H603.40625l-21.09375 16.875 25.3125-119.53125 2.109375-11.25 11.25-4.21875c9.140625-3.515625 17.578125-7.03125 26.015625-11.25l10.546875-4.921875 9.84375 6.328125 99.84375 62.578125-25.3125 2.8125 123.046875-118.125-3.515625 26.71875-66.796875-105.46875-6.328125-9.84375 4.921875-10.546875c2.8125-7.03125 6.328125-14.765625 8.4375-21.796875l3.515625-11.25 11.25-2.8125 118.125-28.125-16.171875 21.09375v-168.75l16.875 21.09375-124.453125-25.3125-11.25-2.109375-4.21875-10.546875c-2.109375-5.625-4.921875-11.953125-7.734375-17.578125z m28.125 9.84375l4.21875-21.09375 124.453125 25.3125 16.875 3.515625V485.953125l-16.171875 4.21875-118.125 28.125-4.921875-21.09375 20.390625 7.03125c-2.8125 8.4375-6.328125 16.875-9.84375 25.3125l-19.6875-8.4375 18.28125-11.25 66.796875 105.46875 9.140625 14.765625-12.65625 11.953125-123.046875 118.125L759.5 770.71875l-14.0625-9.140625L645.59375 699l11.25-18.28125L666.6875 700.40625c-9.84375 4.921875-19.6875 9.140625-30.234375 12.65625L628.71875 693.375l21.09375 4.21875-25.3125 119.53125-3.515625 16.875H414.265625l-4.21875-16.171875-28.828125-116.71875 21.09375-4.921875-7.03125 20.390625c-7.03125-2.109375-13.359375-4.921875-20.390625-7.734375l8.4375-19.6875 11.25 18.28125-108.28125 64.6875-14.0625 8.4375-11.953125-11.953125-121.640625-120.234375-12.65625-12.65625 9.84375-14.765625L200.515625 524.625l17.578125 11.953125-18.984375 9.140625c-4.21875-8.4375-7.734375-16.171875-11.25-24.609375l19.6875-8.4375-4.921875 21.09375-124.453125-29.53125-16.171875-3.515625v-203.203125l16.875-3.515625 118.828125-23.90625 4.21875 21.09375-20.390625-7.03125c2.8125-8.4375 6.328125-16.875 9.84375-25.3125l19.6875 8.4375-18.28125 11.25-68.203125-108.984375-9.140625-14.765625 12.65625-11.953125 122.34375-118.828125 11.953125-11.953125 14.0625 9.140625 105.46875 67.5-11.25 18.28125-9.140625-19.6875c7.03125-3.515625 14.765625-6.328125 21.796875-9.140625l7.734375 19.6875-21.09375-4.921875 30.234375-120.9375 4.21875-16.171875H611.140625l3.515625 16.875 24.609375 115.3125-21.09375 4.21875 7.03125-20.390625c8.4375 2.8125 16.171875 5.625 24.609375 9.140625l-8.4375 19.6875-11.25-18.28125 111.796875-66.796875 14.0625-8.4375 11.953125 11.25 122.34375 119.53125 12.65625 12.65625-9.84375 14.765625-68.90625 101.953125-17.578125-11.953125 18.984375-9.84375c3.515625 7.03125 7.03125 14.0625 9.84375 21.09375l-19.6875 8.4375zM512 234.9375c-87.890625 0-159.609375 71.71875-159.609375 159.609375S424.109375 554.15625 512 554.15625 671.609375 482.4375 671.609375 394.546875 599.890625 234.9375 512 234.9375z m0 277.03125c-64.6875 0-117.421875-52.734375-117.421875-117.421875S447.3125 277.125 512 277.125s117.421875 52.734375 117.421875 117.421875S576.6875 511.96875 512 511.96875z"  horiz-adv-x="1024" />

    
    <glyph glyph-name="system-statu" unicode="&#59201;" d="M300.8 483.5l-61.4-140.8h-122.4v50h89.6l102.6 235.2 112.3-369.6 104.2 192.5 104.6-88.8 111.2 235.7 74.8-196.9h90.7v-50h-125.2l-45.2 119.1-88.8-188.3-107.4 91.2-131.9-243.7-107.7 354.4zM67 804v-303.2h50v253.2h790v-253.2h50v303.2h-890zM907 14h-790v261.8h-50v-311.8h890v311.8h-50v-261.8z"  horiz-adv-x="1024" />

    
    <glyph glyph-name="manage-process" unicode="&#59206;" d="M796.6 260.5v153.3h-262.2v93.7h200v320h-450v-320h200v-93.7h-257v-153.3h-155v-320h360v320h-155v103.3h469.1v-103.3h-155v-320h360v320h-154.9zM334.4 777.5h350v-220h-350v220zM382.4-9.5h-260v220h260v-220zM901.6-9.5h-260v220h260v-220z"  horiz-adv-x="1024" />

    
    <glyph glyph-name="cpu_icon" unicode="&#59051;" d="M351.997 197.337h320.006c0.006 0 0.012 0 0.019 0 14.718 0 26.649 11.932 26.649 26.649 0 0.007 0 0.013 0 0.021v319.996c0 0.006 0 0.012 0 0.019 0 14.718-11.932 26.649-26.649 26.649-0.007 0-0.013 0-0.021 0h-320.005c-0.006 0-0.012 0-0.019 0-14.718 0-26.649-11.932-26.649-26.649 0-0.007 0-0.013 0-0.021v-320.005c0-0.003 0-0.007 0-0.009 0-14.718 11.932-26.649 26.649-26.649 0.007 0 0.013 0 0.021 0zM378.666 517.334h266.669v-266.669h-266.669zM965.331 424.003c14.729 0 26.669 11.94 26.669 26.669s-11.94 26.669-26.669 26.669h-93.331v79.997h93.331c14.729 0 26.669 11.94 26.669 26.669s-11.94 26.669-26.669 26.669h-93.331v106.656c0 0.006 0 0.012 0 0.019 0 14.718-11.932 26.649-26.649 26.649-0.007 0-0.013 0-0.021 0h-106.665v93.331c0 0 0 0 0 0 0 14.729-11.94 26.669-26.669 26.669-14.729 0-26.669-11.94-26.669-26.669 0 0 0 0 0 0v-93.331h-79.997v93.331c0 0 0 0 0 0 0 14.729-11.94 26.669-26.669 26.669-14.729 0-26.669-11.94-26.669-26.669 0 0 0 0 0 0v-93.331h-79.997v93.331c0 14.729-11.94 26.669-26.669 26.669s-26.669-11.94-26.669-26.669v-93.331h-79.997v93.331c0 14.729-11.94 26.669-26.669 26.669s-26.669-11.94-26.669-26.669v-93.331h-106.656c-0.006 0-0.012 0-0.019 0-14.718 0-26.649-11.932-26.649-26.649 0-0.007 0-0.013 0-0.021v-106.665h-93.331c-14.729 0-26.669-11.94-26.669-26.669s11.94-26.669 26.669-26.669h93.331v-79.997h-93.331c-14.729 0-26.669-11.94-26.669-26.669s11.94-26.669 26.669-26.669h93.331v-79.997h-93.331c0 0 0 0 0 0-14.729 0-26.669-11.94-26.669-26.669 0-14.729 11.94-26.669 26.669-26.669 0 0 0 0 0 0h93.331v-79.997h-93.331c0 0 0 0 0 0-14.729 0-26.669-11.94-26.669-26.669 0-14.729 11.94-26.669 26.669-26.669 0 0 0 0 0 0h93.331v-106.656c0-0.006 0-0.012 0-0.019 0-14.718 11.932-26.649 26.649-26.649 0.007 0 0.013 0 0.021 0h106.665v-93.331c0-14.729 11.94-26.669 26.669-26.669s26.669 11.94 26.669 26.669v93.331h79.997v-93.331c0-14.729 11.94-26.669 26.669-26.669s26.669 11.94 26.669 26.669v93.331h79.997v-93.331c0 0 0 0 0 0 0-14.729 11.94-26.669 26.669-26.669 14.729 0 26.669 11.94 26.669 26.669 0 0 0 0 0 0v93.331h79.997v-93.331c0 0 0 0 0 0 0-14.729 11.94-26.669 26.669-26.669 14.729 0 26.669 11.94 26.669 26.669 0 0 0 0 0 0v93.331h106.656c0.006 0 0.012 0 0.019 0 14.718 0 26.649 11.932 26.649 26.649 0 0.007 0 0.013 0 0.021v106.665h93.331c0 0 0 0 0 0 14.729 0 26.669 11.94 26.669 26.669 0 14.729-11.94 26.669-26.669 26.669 0 0 0 0 0 0h-93.331v79.997h93.331c0 0 0 0 0 0 14.729 0 26.669 11.94 26.669 26.669 0 14.729-11.94 26.669-26.669 26.669 0 0 0 0 0 0h-93.331v79.997zM818.663 77.337h-613.325v613.325h613.325z"  horiz-adv-x="1024" />

    
    <glyph glyph-name="zixun" unicode="&#58949;" d="M959.9 705.6c-0.1 44.2-4.7 78.2-26.8 100.3-22 22.1-55.9 26.8-100 26.9-158.6 0.6-321.2 0.6-497.3 0-46.3-0.2-77.6-10.2-98.5-31.6-15.1-15.4-24-36.1-27.3-63.7h-0.1c-58.9 2.3-97 1.4-120.4-21.5-25.4-24.7-26-67.6-24.8-135.7 1.8-107.9 1.4-217.7 1.1-324-0.2-63.6-0.4-129.3-0.2-194 0.2-44.2 4.8-78.2 26.8-100.3 22.1-22.2 55.9-26.8 100-26.9 107-0.3 213.3-0.5 318.4-0.5 105.9 0 210.4 0.2 312.8 0.5 37.7 0.1 79.9 3.8 106.2 30.3 21 21 30 52.9 30.1 106.5 0.6 204.8 0.6 418 0 633.7zM916 72.2c-0.1-40.4-5.5-63.8-17.4-75.7-11.9-11.9-35.1-17.3-75.3-17.4-203.9-0.6-416.1-0.6-630.8 0-38.8 0.1-59.4 4.3-69.1 14-9.7 9.7-13.9 30.5-14 69.5-0.2 64.5 0 130.2 0.2 193.7 0.4 106.4 0.7 216.5-1.1 324.8-0.9 53.2-0.6 91.7 11.6 103.5 7.9 7.6 26.9 9.9 53.8 9.9 10.5 0 22.2-0.3 34.9-0.8l0.1-0.1c2.6-133.4 4.8-268.8 6.9-399.8l2.7-164.5c0.2-12 10-21.6 21.9-21.6h0.4c12.1 0.2 21.8 10.2 21.6 22.3-0.9 54.8-1.8 109.6-2.7 164.5-2.2 134.8-4.4 274.3-7.1 411.4-0.6 32.1 4.5 52.6 16.3 64.7 12 12.2 34 18.2 67.3 18.4 176 0.6 338.5 0.6 497 0 38.8-0.2 59.5-4.4 69.1-14 9.7-9.7 13.9-30.5 14-69.5 0.3-215.7 0.3-428.7-0.3-633.3zM803.7 391.5H364.5c-12.4 0-22.3-10.2-21.9-22.7 0.4-11.9 10.6-21.2 22.5-21.2h439.2c12.4 0 22.3 10.2 21.9 22.7-0.4 12-10.6 21.2-22.5 21.2zM803.7 276.4H364.5c-12.4 0-22.3-10.2-21.9-22.7 0.4-11.9 10.6-21.2 22.5-21.2h439.2c12.4 0 22.3 10.2 21.9 22.7-0.4 11.9-10.6 21.2-22.5 21.2zM803.7 161.2H364.5c-12.4 0-22.3-10.2-21.9-22.7 0.4-11.9 10.6-21.2 22.5-21.2h439.2c12.4 0 22.3 10.2 21.9 22.7-0.4 11.9-10.6 21.2-22.5 21.2zM803.7 698.6H670.5c-12.4 0-22.3-10.2-21.9-22.7 0.4-11.9 10.6-21.2 22.5-21.2h133.3c12.4 0 22.3 10.2 21.9 22.7-0.5 12-10.7 21.2-22.6 21.2zM803.7 602.7H670.5c-12.4 0-22.3-10.2-21.9-22.7 0.4-11.9 10.6-21.2 22.5-21.2h133.3c12.4 0 22.3 10.2 21.9 22.7-0.5 11.9-10.7 21.2-22.6 21.2zM803.7 506.7H670.5c-12.4 0-22.3-10.2-21.9-22.7 0.4-11.9 10.6-21.2 22.5-21.2h133.3c12.4 0 22.3 10.2 21.9 22.7-0.5 11.9-10.7 21.2-22.6 21.2zM549 458.4c26.1 0 47.3 21.2 47.3 47.3V664c0 26.1-21.2 47.3-47.3 47.3H355.6c-26.1 0-47.3-21.2-47.3-47.3v-158.3c0-26.1 21.2-47.3 47.3-47.3H549z m-196.8 47.3V664c0 1.9 1.5 3.4 3.4 3.4H549c1.9 0 3.4-1.5 3.4-3.4v-158.3c0-1.9-1.5-3.4-3.4-3.4H355.6c-1.9 0-3.4 1.5-3.4 3.4z"  horiz-adv-x="1024" />

    
    <glyph glyph-name="OCR" unicode="&#59211;" d="M841.13635555 261.42340741h-111.28983703c-7.88859259 0-14.19946667-6.31087408-14.19946667-13.83537778 0-7.76722963 6.43223703-13.83537778 14.19946667-13.83537778h41.50613333V138.84681481999996c0-7.76722963 6.43223703-13.83537778 14.19946667-13.83537779 7.88859259 0 14.19946667 6.31087408 14.19946666 13.83537779v94.90583703h41.50613334c7.88859259 0 14.19946667 6.31087408 14.19946666 13.83537778-0.12136297 7.76722963-6.67496297 13.83537778-14.32082963 13.83537778zM635.5474963 302.80817778000005c0 26.33576297 0.12136297 36.77297778 0.12136295 36.77297777h85.43952593v24.51531853h-109.95484443v-110.19757038h24.39395555v48.90927408z m0-214.08426667V143.70133333h-24.39395555v-109.95484444h109.95484443v21.96669629h-85.56088888v33.01072593z m275.37256295 275.2512h-61.04557036v-24.51531852h85.43952593s-0.24272592-10.07312592 0.12136296-36.77297777v-49.03063704H959.82933333v110.19757037c-0.12136297 0.12136297-8.13131852 0.12136297-48.90927408 0.12136296z m24.39395557-308.50465186s-7.16041482 0.12136297-37.13706667 0.12136297h-48.42382223v-21.84533333h109.95484445V143.70133333h-24.39395555V55.470459249999976zM922.81362963 417.61754075V675.87792592H79.21967408v-599.53303703h466.88331851l0.72817778-36.89434074H42.32533333V712.6509037h917.504v-294.79063703l-37.0157037-0.24272592z m-417.85268148-122.5765926c-32.52527408 32.52527408-110.19757037 110.07620741-110.19757037 110.0762074L150.70245925 161.42032591999998c-7.16041482-7.16041482-18.93262222-7.16041482-26.09303703 0s-7.16041482 18.81125925 0 26.09303705l256.9253926 256.43994073c3.64088889 3.64088889 8.49540741 5.46133333 13.22856296 5.33997038 4.85451852 0.12136297 9.58767408-1.69908148 13.34992592-5.33997038l127.91656297-127.7952-25.48622222-26.69985185s-3.64088889 3.76225185-5.5826963 5.5826963z m95.9981037 338.35994074c42.5984 0 77.30820741-34.58844445 77.3082074-77.06548148s-34.70980741-77.06548148-77.3082074-77.06548149-77.30820741 34.58844445-77.3082074 77.06548149 34.70980741 77.06548148 77.3082074 77.06548148z m0-117.47934814c22.20942222 0 40.41386667 18.08308148 40.41386667 40.2925037 0 22.20942222-18.08308148 40.2925037-40.41386667 40.2925037-22.20942222 0-40.41386667-18.08308148-40.41386667-40.2925037 0-22.20942222 18.20444445-40.2925037 40.41386667-40.2925037z"  horiz-adv-x="1024" />

    
    <glyph glyph-name="dingyue1" unicode="&#58943;" d="M704 490.666667v128a21.333333 21.333333 0 0 0 42.666667 0v-128h128a21.333333 21.333333 0 0 0 0-42.666667h-128v-128a21.333333 21.333333 0 0 0-42.666667 0v128h-128a21.333333 21.333333 0 0 0 0 42.666667h128z m149.333333-173.717334a21.333333 21.333333 0 0 0 42.666667 0V14.506666999999993a64 64 0 0 0-98.794667-53.696l-273.088 176.96a21.333333 21.333333 0 0 1-23.189333 0l-274.197333-177.152A64 64 0 0 0 128 14.35733300000004V661.333333a149.333333 149.333333 0 0 0 149.333333 149.333334h469.333334a149.333333 149.333333 0 0 0 149.333333-149.333334v-43.946666a21.333333 21.333333 0 0 0-42.666667 0V661.333333a106.666667 106.666667 0 0 1-106.666666 106.666667H277.333333a106.666667 106.666667 0 0 1-106.666666-106.666667v-646.976a21.333333 21.333333 0 0 1 32.917333-17.92l274.197333 177.173334a64 64 0 0 0 69.546667-0.064l273.066667-176.96A21.333333 21.333333 0 0 1 853.333333 14.506666999999993V316.928z"  horiz-adv-x="1024" />

    
    <glyph glyph-name="yewumokuai" unicode="&#58934;" d="M588.16 228.288a145.568 145.568 0 0 0-145.408 145.344 145.6 145.6 0 0 0 145.408 145.376 145.568 145.568 0 0 0 145.376-145.376 145.6 145.6 0 0 0-145.376-145.344z m0 255.808a110.624 110.624 0 0 1-110.496-110.464 110.656 110.656 0 0 1 110.496-110.496 110.624 110.624 0 0 1 110.4 110.496 110.56 110.56 0 0 1-110.4 110.464zM788.64-0.672h-0.448a16.864 16.864 0 0 0-16.32 17.344c0.064 2.016 0.064 4.032 0.064 5.952 0 106.752-81.216 193.6-180.928 193.6-99.744 0-180.896-86.848-180.896-193.6v-5.952a16.864 16.864 0 0 0-16.256-17.344 16.864 16.864 0 0 0-17.216 16.352c-0.064 2.304-0.064 4.64-0.064 6.944 0 60.544 22.208 117.504 62.464 160.32a213.792 213.792 0 0 0 68.192 48.96 203.232 203.232 0 0 0 83.808 17.984c29.088 0 57.248-6.016 83.808-17.984a216.736 216.736 0 0 0 68.288-48.96c40.288-42.816 62.4-99.776 62.4-160.32 0-2.24 0-4.576-0.064-6.944a16.832 16.832 0 0 0-16.832-16.352zM872.448 32.896h-0.384a16.736 16.736 0 0 0-16.32 17.216v6.176c0 97.568-60.16 179.872-143.136 195.968a150.496 150.496 0 0 1-28.608 2.784 16.736 16.736 0 0 0 0 33.504c11.744 0 23.456-1.184 34.944-3.424 47.456-9.152 90.816-37.216 122.016-79.04 31.136-41.856 48.384-95.008 48.384-149.824 0-2.368 0-4.672-0.128-7.072a16.768 16.768 0 0 0-16.768-16.288zM710.784 254.816c-14.112 0-27.904 2.4-41.024 7.232a16.8 16.8 0 0 0 11.68 31.552c9.28-3.456 19.264-5.312 29.344-5.312a85.44 85.44 0 0 1 85.248 85.312 85.44 85.44 0 0 1-112 81.088 16.768 16.768 0 0 0-10.56 31.84 117.152 117.152 0 0 0 37.152 5.856 118.912 118.912 0 0 0 118.848-118.816 118.816 118.816 0 0 0-118.688-118.752zM333.856-89.568a73.216 73.216 0 0 0-73.44 73.408V535.04a73.28 73.28 0 0 0 73.44 73.472h615.84a73.312 73.312 0 0 0 73.504-73.472v-551.2a73.248 73.248 0 0 0-73.504-73.408H333.856z m0 649.376a24.864 24.864 0 0 1-24.736-24.736v-551.2c0-13.472 11.168-24.704 24.736-24.704h615.84c11.2 0 19.968 7.296 23.2 16.768h1.6V535.04a24.864 24.864 0 0 1-24.768 24.736H333.856v0.032zM154.944 89.312a24.096 24.096 0 0 0-23.968 24.032V664.448A73.28 73.28 0 0 0 204.48 737.888h550.304a24 24 0 0 0 0-47.936H203.616a24.864 24.864 0 0 1-24.704-24.736v-551.2c0-14.272-10.368-24.704-23.968-24.704zM24.736 218.72a24.032 24.032 0 0 0-23.936 23.968V793.888A73.216 73.216 0 0 0 74.272 867.328h550.272c13.568 0 24-11.136 24-23.968 0-13.6-11.264-24-24-24H73.44a24.832 24.832 0 0 1-24.736-24.736v-551.072a23.744 23.744 0 0 0-23.968-24.832z"  horiz-adv-x="1024" />

    
    <glyph glyph-name="duanxin" unicode="&#59251;" d="M204.8 672l278.4-278.4c12.8-12.8 35.2-12.8 48 0l288 278.4H204.8z m688-19.2l-320-307.2c-38.4-35.2-99.2-35.2-137.6 0L131.2 656c-3.2-6.4-3.2-9.6-3.2-16v-512c0-19.2 12.8-32 32-32h704c19.2 0 32 12.8 32 32V640c0 3.2 0 9.6-3.2 12.8zM160 736h704c54.4 0 96-41.6 96-96v-512c0-54.4-41.6-96-96-96H160c-54.4 0-96 41.6-96 96V640c0 54.4 41.6 96 96 96z"  horiz-adv-x="1024" />

    
    <glyph glyph-name="fuwu" unicode="&#58986;" d="M596.19555555 820.90666667H434.40355555l-80.896-140.51555556L434.40355555 539.87555555H596.19555555l80.896 140.51555556L596.19555555 820.90666667z m-27.42044444-233.24444445H461.93777778l-53.47555556 92.72888889 53.47555556 92.72888889h106.83733333l53.36177778-92.72888889-53.36177778-92.72888889zM865.62133333 375.01155555H703.71555555l-80.896-140.51555555 80.896-140.51555555H863.57333333l60.87111112 102.05866666 22.18666666 38.45688889-81.00977778 140.51555555z m17.74933334-154.51022222l-46.87644445-78.62044444h-105.24444444l-53.36177778 92.72888889 53.36177778 92.72888889h106.83733333l53.36177778-92.72888889-8.07822222-14.10844445zM376.49066667 196.15288888999999l22.18666666 38.45688889-80.896 140.51555555H155.87555555l-80.896-140.51555555L155.87555555 94.09422222h159.85777778l60.75733334 102.05866667z m-193.08088889-54.272l-53.36177778 92.72888889 53.36177778 92.72888889H290.13333333l53.36177778-92.72888889-8.07822222-14.10844445-46.87644444-78.62044444h-105.13066667zM600.17777778 136.87466667c-3.64088889 6.25777778-11.03644445 9.10222222-17.97688889 6.94044444-22.98311111-7.168-47.21777778-10.80888889-72.02133334-10.80888889-24.46222222 0-48.24177778 3.52711111-70.88355555 10.35377778-6.82666667 2.048-14.10844445-0.68266667-17.74933333-6.82666667-5.12-8.64711111-0.91022222-19.79733333 8.64711111-22.75555555 25.71377778-7.85066667 52.56533333-11.83288889 79.98577777-11.83288889 27.87555555 0 55.06844445 4.096 81.23733334 12.288 9.44355555 3.072 13.76711111 13.99466667 8.76088889 22.64177778zM691.31377778 9.216000000000008c-4.32355555 7.168-13.53955555 9.55733333-20.82133333 5.68888889-49.72088889-23.66577778-104.33422222-36.40888889-160.3128889-36.40888889-56.43377778 0-111.38844445 12.85688889-161.2231111 36.75022222-7.39555555 4.55111111-17.06666667 2.16177778-21.39022223-5.46133333l-0.34133333-0.56888889c-4.096-7.168-1.59288889-16.15644445 5.46133333-20.59377778l0.11377778-0.11377777 5.46133333-2.73066667c54.04444445-25.48622222 111.84355555-38.34311111 171.91822222-38.34311111 59.05066667 0 116.05333333 12.51555555 169.30133334 37.20533333 2.16177778 1.024 4.32355555 2.048 6.59911111 3.072 7.28177778 4.55111111 9.67111111 14.10844445 5.23377778 21.504zM690.51733333 582.54222222c-3.75466667-6.144-2.61688889-14.10844445 2.61688889-19.11466667 17.29422222-16.72533333 32.19911111-36.18133333 44.14577778-58.02666666 11.83288889-21.39022222 20.13866667-44.032 25.03111111-67.24266667 1.47911111-6.94044445 7.39555555-12.06044445 14.56355556-12.288 10.01244445-0.34133333 17.74933333 8.76088889 15.70133333 18.54577778-5.57511111 26.39644445-15.01866667 51.88266667-28.21688889 75.88977778-13.42577778 24.46222222-30.15111111 46.30755555-49.94844444 65.42222222-7.168 6.82666667-18.77333333 5.23377778-23.89333334-3.18577778zM758.10133333 724.08177778c-4.096-7.28177778-1.82044445-16.49777778 5.12-20.93511111 44.71466667-32.19911111 82.14755555-74.06933333 109.11288889-123.10755556 27.19288889-49.49333333 42.43911111-103.99288889 45.62488889-159.28888889-0.45511111-8.64711111 6.37155555-16.04266667 15.13244444-16.15644444h0.68266667c8.30577778-0.11377778 14.79111111 6.37155555 15.36 14.67733333v0.11377778l-0.34133333 6.144c-3.75466667 59.73333333-20.36622222 116.736-49.37955556 169.41511111-28.44444445 51.88266667-66.90133333 95.80088889-114.23288888 130.73066667-1.93422222 1.47911111-3.86844445 2.84444445-5.91644445 4.20977778-7.28177778 4.20977778-16.83911111 1.70666667-21.16266667-5.80266667zM245.07733333 427.69066667c7.168 0.79644445 12.74311111 6.48533333 13.65333334 13.76711111 2.73066667 24.00711111 8.98844445 47.67288889 19.00088888 70.42844444 9.78488889 22.41422222 22.528 42.89422222 37.888 60.87111111 4.55111111 5.46133333 5.00622222 13.19822222 0.91022223 19.00088889-5.80266667 8.192-17.74933333 8.76088889-24.23466667 1.13777778-17.52177778-20.48-31.85777778-43.46311111-42.89422222-68.608-11.15022222-25.6-18.31822222-52.224-21.27644444-79.53066667-1.25155555-9.89866667 7.05422222-18.20444445 16.95288888-17.06666666zM94.09422222 395.15022222c8.192 1.13777778 14.10844445 8.53333333 13.53955556 16.83911111-1.70666667 55.06844445 8.53333333 110.36444445 30.94755555 161.792 22.64177778 51.76888889 56.32 97.05244445 98.19022222 133.23377778 7.168 5.00622222 8.76088889 14.79111111 3.6408889 21.84533334l-0.34133334 0.56888888c-4.89244445 6.71288889-14.10844445 7.85066667-20.93511111 3.29955556l-0.11377778-0.11377778c-1.59288889-1.36533333-3.072-2.61688889-4.66488889-3.98222222-44.94222222-39.36711111-79.872-87.38133333-103.99288888-142.44977778-23.66577778-54.15822222-35.04355555-111.50222222-33.792-170.32533333 0-2.38933333 0.11377778-4.89244445 0.22755555-7.28177778 0.91022222-8.53333333 8.76088889-14.56355555 17.29422222-13.42577778z"  horiz-adv-x="1024" />

    
    <glyph glyph-name="gaojingmoban-xiugai" unicode="&#58931;" d="M851.2 275.2c-76.8 0-140.8-57.6-147.2-134.4l-262.4 12.8c-12.8 70.4-70.4 128-147.2 128l-64 217.6c44.8 19.2 76.8 51.2 89.6 96l256-12.8c12.8-25.6 38.4-44.8 64-44.8 38.4 0 70.4 32 70.4 70.4s-32 76.8-70.4 76.8c-38.4 0-64-19.2-70.4-51.2l-243.2 12.8c0 83.2-70.4 153.6-153.6 153.6C89.6 800 19.2 729.6 19.2 646.4s70.4-153.6 153.6-153.6h6.4l57.6-211.2c-64-19.2-108.8-76.8-108.8-147.2 0-83.2 70.4-153.6 153.6-153.6 76.8 0 134.4 51.2 147.2 121.6l268.8-12.8c12.8-70.4 76.8-121.6 147.2-121.6 83.2 0 153.6 70.4 153.6 153.6s-64 153.6-147.2 153.6zM70.4 646.4c0 57.6 44.8 102.4 102.4 102.4s102.4-44.8 102.4-102.4-44.8-108.8-102.4-108.8-102.4 51.2-102.4 108.8z m217.6-614.4c-57.6 0-102.4 44.8-102.4 102.4s44.8 102.4 102.4 102.4 102.4-44.8 102.4-102.4-44.8-102.4-102.4-102.4z m563.2-12.8c-57.6 0-102.4 44.8-102.4 102.4 0 57.6 44.8 102.4 102.4 102.4s102.4-44.8 102.4-102.4c0-51.2-44.8-102.4-102.4-102.4zM550.4 416c12.8 0 25.6 6.4 25.6 19.2 0 12.8-6.4 25.6-25.6 25.6l-192 12.8c-12.8 0-25.6-6.4-25.6-25.6 0-12.8 6.4-25.6 25.6-25.6l192-6.4zM384 320l192-12.8c12.8 0 25.6 12.8 25.6 25.6s-6.4 25.6-25.6 25.6l-192 12.8c-12.8 0-25.6-6.4-25.6-25.6 0-12.8 12.8-25.6 25.6-25.6z"  horiz-adv-x="1024" />

    
    <glyph glyph-name="jiankongmoban-xiugai" unicode="&#58933;" d="M896 179.20000000000005c-44.8 0-76.8-25.6-96-57.6L460.8 281.6l147.2 243.2c25.6-12.8 51.2-25.6 83.2-25.6 83.2 0 153.6 70.4 153.6 153.6s-70.4 153.6-153.6 153.6-153.6-64-153.6-147.2c0-19.2 6.4-38.4 12.8-57.6L300.8 492.8c-25.6 44.8-76.8 76.8-134.4 76.8C83.2 569.6 12.8 499.2 12.8 416c0-83.2 70.4-153.6 153.6-153.6 12.8 0 19.2 0 32 6.4l57.6-128c-12.8-12.8-19.2-25.6-19.2-44.8 0-38.4 32-64 64-64 38.4 0 64 32 64 64 0 12.8-6.4 19.2-6.4 32l70.4 121.6 352-166.4v-6.4c0-64 51.2-115.2 115.2-115.2s115.2 51.2 115.2 115.2-51.2 102.4-115.2 102.4z m-204.8 582.4c57.6 0 108.8-44.8 108.8-108.8s-44.8-108.8-108.8-108.8-108.8 57.6-108.8 115.2 51.2 102.4 108.8 102.4zM569.6 563.2l-153.6-256-108.8 44.8c6.4 19.2 12.8 44.8 12.8 64V448l249.6 115.2zM64 416c0 57.6 44.8 108.8 108.8 108.8s108.8-44.8 108.8-108.8c0-57.6-44.8-108.8-108.8-108.8S64 358.4 64 416z m262.4-262.4c-6.4 0-12.8 6.4-19.2 6.4h-6.4l-57.6 128c12.8 6.4 25.6 12.8 38.4 25.6l108.8-51.2-64-108.8z m569.6-147.2c-38.4 0-64 32-64 64 0 38.4 32 64 64 64s64-32 64-64c0-38.4-25.6-64-64-64z"  horiz-adv-x="1024" />

    
    <glyph glyph-name="ceshi" unicode="&#58890;" d="M574.01647408 613.9828148199999l23.66577777 1.21362963 58.9824-58.73967408-3.51952593-22.33078519-55.09878517-55.94832593-82.04136297 77.79365927 58.0114963 58.0114963zM332.01872592 371.8637037l159.47093333 159.47093333 79.25001483-80.94909628-154.85914075-157.16503705-3.88361481-0.36408888-81.43454815 69.29825185 1.45635555 9.70903703z m-36.53025184-98.66808888l23.30168889 55.82696296 56.31241481-46.11792593-68.93416296-29.61256296-17.7189926-5.82542222 7.03905186 25.72894815zM712.37025185 169.18755554999996H310.78020741c-12.25765925 0-22.20942222 9.95176297-22.20942223 22.20942223s9.95176297 22.20942222 22.20942223 22.20942222h401.59004444c12.25765925 0 22.20942222-9.95176297 22.20942223-22.20942222 0-12.25765925-9.95176297-22.20942222-22.20942223-22.20942223z m-0.24272593 100.24580742H489.42648889c-12.37902222 0-22.45214815 10.07312592-22.45214814 22.45214814s10.07312592 22.45214815 22.45214814 22.45214814H712.24888889c12.37902222 0 22.45214815-10.07312592 22.45214814-22.45214814-0.12136297-12.50038518-10.19448889-22.45214815-22.57351111-22.45214814zM772.89244445 782.67733333h-48.24177778c-11.94666667 0-21.73155555-9.78488889-21.73155556-21.73155555s9.78488889-21.73155555 21.73155556-21.73155556h48.24177778c47.78666667 0 86.69866667-38.912 86.69866666-86.81244444v-543.17511111c0-47.90044445-39.02577778-86.81244445-86.92622222-86.81244445H251.33511111c-47.90044445 0-86.81244445 38.912-86.81244444 86.81244445V652.40177778c0 47.90044445 38.912 86.81244445 86.81244444 86.81244444h51.08622222c11.94666667 0 21.73155555 9.78488889 21.73155556 21.73155556s-9.78488889 21.73155555-21.73155556 21.73155555h-51.08622222c-71.79377778 0-130.27555555-58.48177778-130.27555556-130.27555555v-543.17511111c0-71.79377778 58.48177778-130.27555555 130.27555556-130.27555556h521.44355556c71.79377778 0 130.27555555 58.48177778 130.27555555 130.27555556V652.40177778c-0.11377778 71.79377778-58.48177778 130.27555555-130.16177777 130.27555555zM429.28355555 723.85422222h164.52266667c21.61777778 0 39.13955555 14.56355555 39.13955556 32.54044445s-17.52177778 32.54044445-39.13955556 32.54044444H429.28355555c-21.61777778 0-39.13955555-14.56355555-39.13955555-32.54044444-0.11377778-17.86311111 17.408-32.54044445 39.13955555-32.54044445z"  horiz-adv-x="1024" />

    
    <glyph glyph-name="cuowu" unicode="&#58899;" d="M648.8 221c-6.9 0-13.8 2.6-19.1 7.9L358.1 500.6c-10.5 10.5-10.5 27.6 0 38.2 10.5 10.5 27.6 10.5 38.2 0L668 267.1c10.5-10.5 10.5-27.6 0-38.2-5.3-5.2-12.2-7.9-19.2-7.9zM377.2 221c-6.9 0-13.8 2.6-19.1 7.9-10.5 10.5-10.5 27.6 0 38.2l271.7 271.7c10.5 10.5 27.6 10.5 38.2 0 10.5-10.5 10.5-27.6 0-38.2L396.2 229c-5.2-5.3-12.1-8-19-8zM511.3 37.3c-47 0-92.6 9.2-135.6 27.4-41.5 17.5-78.7 42.7-110.7 74.6s-57 69.2-74.6 110.7c-18.2 43-27.4 88.6-27.4 135.6s9.2 92.6 27.4 135.6c17.5 41.5 42.7 78.7 74.6 110.7 32 32 69.2 57.1 110.7 74.6 43 18.2 88.6 27.4 135.6 27.4s92.6-9.2 135.6-27.4c41.5-17.5 78.7-42.7 110.7-74.6 32-32 57.1-69.2 74.6-110.7 18.2-43 27.4-88.6 27.4-135.6 0-48.8-9.9-96.1-29.5-140.4-6-13.6-22-19.8-35.6-13.8-13.6 6-19.8 22-13.8 35.6 16.5 37.4 24.9 77.3 24.9 118.6 0 162.3-132 294.3-294.3 294.3S217 547.9 217 385.6s132-294.3 294.3-294.3c64 0 124.8 20.2 175.8 58.3 11.9 8.9 28.9 6.5 37.8-5.5 8.9-11.9 6.5-28.9-5.5-37.8-60.4-45.2-132.4-69-208.1-69z"  horiz-adv-x="1024" />

    
    <glyph glyph-name="zhanghuyichang" unicode="&#58900;" d="M511.3 37.3c-47 0-92.6 9.2-135.6 27.4-41.5 17.5-78.7 42.7-110.7 74.6s-57 69.2-74.6 110.7c-18.2 43-27.4 88.6-27.4 135.6s9.2 92.6 27.4 135.6c17.5 41.5 42.7 78.7 74.6 110.7 32 32 69.2 57.1 110.7 74.6 43 18.2 88.6 27.4 135.6 27.4s92.6-9.2 135.6-27.4c41.5-17.5 78.7-42.7 110.7-74.6 32-32 57.1-69.2 74.6-110.7 18.2-43 27.4-88.6 27.4-135.6 0-48.8-9.9-96.1-29.5-140.4-6-13.6-22-19.8-35.6-13.8-13.6 6-19.8 22-13.8 35.6 16.5 37.4 24.9 77.3 24.9 118.6 0 162.3-132 294.3-294.3 294.3S217 547.9 217 385.6s132-294.3 294.3-294.3c64 0 124.8 20.2 175.8 58.3 11.9 8.9 28.9 6.5 37.8-5.5 8.9-11.9 6.5-28.9-5.5-37.8-60.4-45.2-132.4-69-208.1-69zM511.3 293c-20.4 0-37 16.6-37 37V585.8c0 20.4 16.6 37 37 37s37-16.6 37-37V330c0-20.5-16.5-37-37-37zM513 154.4c-27.9 0-50.5 22.7-50.5 50.5s22.7 50.5 50.5 50.5 50.5-22.7 50.5-50.5-22.6-50.5-50.5-50.5z m0 54c-1.9 0-3.5-1.6-3.5-3.5s1.6-3.5 3.5-3.5 3.5 1.6 3.5 3.5-1.6 3.5-3.5 3.5z"  horiz-adv-x="1024" />

    
    <glyph glyph-name="kaifa" unicode="&#58932;" d="M843.87499973 682.12499973c-16.875 0-28.12499973-11.24999973-28.12499973-28.12499973s11.24999973-28.12499973 28.12499973-28.12499973 28.12499973 11.24999973 28.12500054 28.12499973-11.24999973 28.12499973-28.12500054 28.12499973zM905.75000027 682.12499973c-16.875 0-28.12499973-11.24999973-28.12500054-28.12499973s11.24999973-28.12499973 28.12500054-28.12499973 28.12499973 11.24999973 28.12499973 28.12499973-11.24999973 28.12499973-28.12499973 28.12499973zM782 682.12499973c-16.875 0-28.12499973-11.24999973-28.12499973-28.12499973s11.24999973-28.12499973 28.12499973-28.12499973 28.12499973 11.24999973 28.12499973 28.12499973-14.06250027 28.12499973-28.12499973 28.12499973zM872.00000027 344.62499973c-61.87499973 0-109.6875-50.625-109.6875-112.49999973s47.81250027-112.49999973 109.6875-112.49999973c59.0625 0 109.6875 50.625 109.6875 112.49999973 0 64.68750027-47.81250027 112.49999973-109.6875 112.49999973z m56.24999946-112.49999973c0-30.93750027-22.50000027-56.25000027-56.24999946-56.25000027-30.93750027 0-56.25000027 25.3125-56.25000027 56.25000027s22.50000027 56.25000027 56.25000027 56.25000027c30.93750027 0 56.25000027-22.50000027 56.24999946-56.25000027zM506.37499973 192.74999973c-5.62500027-11.24999973-2.81249973-30.93750027 11.25000054-36.56249973 5.62500027-2.81249973 8.4375-2.81249973 14.06249946-2.81249973 11.24999973 0 19.68749973 5.62500027 25.3125 14.06249946l70.31250054 120.93750054-70.31250054 118.125c-8.4375 11.24999973-25.3125 16.875-39.37499946 8.4375-11.24999973-8.4375-16.875-25.3125-8.4375-39.37500027l53.43749973-90.00000027-56.25000027-92.8125zM720.12500027 46.5H222.31250027c-30.93750027 0-56.25000027 25.3125-56.25000027 56.25000027V530.24999973h812.81249973v-42.1875c0-16.875 11.24999973-28.12499973 28.12500054-28.12499973s28.12499973 11.24999973 28.12499973 28.12499973V670.875c0 61.87499973-47.81250027 112.49999973-109.6875 112.49999973h-703.12499973C160.43749973 783.37499973 112.62500027 732.74999973 112.62500027 670.875V102.75000026999999c0-61.87499973 47.81250027-112.49999973 109.6875-112.50000054h497.8125c16.875 0 28.12499973 11.24999973 28.12499973 28.12500054-2.81249973 16.875-14.06250027 28.12499973-28.12499973 28.12499973zM166.0625 586.5v84.375c0 30.93750027 22.50000027 56.25000027 56.25000027 56.25000027h703.12499973c30.93750027 0 56.25000027-25.3125 56.25000027-56.25000027v-84.375h-815.62500027zM447.31249973 386.81249973L343.25 204.00000027c-5.62500027-14.06250027-2.81249973-33.75 11.24999973-39.37500027 5.62500027-2.81249973 8.4375-2.81249973 14.06250027-2.81249973 11.24999973 0 19.68749973 5.62500027 25.3125 14.06249946l104.06249973 185.625c5.62500027 14.06250027 0 30.93750027-11.24999973 39.37500027-16.875 5.62500027-33.75 0-39.37500027-14.06250027zM329.18749973 375.5625c5.62500027 16.875 0 30.93750027-11.24999973 36.56249973-5.62500027 5.62500027-14.06250027 5.62500027-22.50000027 2.81250054-5.62500027-2.81249973-14.06250027-5.62500027-16.875-11.25000054l-70.31249973-118.125 70.31249973-120.93749973c2.81249973-8.4375 11.24999973-11.24999973 16.875-14.06250027h5.62500027c5.62500027 0 8.4375 0 14.06250027 2.81250054 14.06250027 8.4375 19.68749973 25.3125 11.24999973 39.37499946l-53.43749973 92.8125 56.24999946 90.00000027zM1066.06250027 246.18750027l44.99999973 56.24999946-5.62500027 14.06250027c-2.81249973 14.06250027-11.24999973 28.12499973-19.68749973 42.1875-5.62500027 14.06250027-14.06250027 25.3125-25.3125 36.56249973l-11.24999973 11.25000054-67.5-8.4375c-8.4375 0-22.50000027 5.62500027-25.3125 16.875l-22.50000027 64.68749946-16.875 2.81250054c-33.75 5.62500027-70.31249973 5.62500027-104.06249973 0l-14.06250027-2.81250054-25.3125-67.5c-2.81249973-8.4375-14.06250027-16.875-22.50000027-14.06249946l-64.68749946 11.24999973-11.25000054-11.24999973c-16.875-22.50000027-30.93750027-44.99999973-42.1875-78.75000054l-5.62499946-14.06249946 44.99999973-53.43750054c5.62500027-8.4375 5.62500027-22.50000027 0-28.12499973l-44.99999973-53.43749973 5.62499946-14.06250027c5.62500027-16.875 11.24999973-30.93750027 19.68750054-42.1875 5.62500027-14.06250027 14.06250027-25.3125 25.3125-36.56249973l11.24999973-11.25000054 67.5 11.25000054c8.4375 0 19.68749973-5.62500027 22.50000027-14.06250027l22.49999946-67.5 16.875-2.81249973c16.875-5.62500027 36.56249973-5.62500027 53.43750054-5.62500027 16.875 0 36.56249973 2.81249973 53.43749973 5.62500027l14.06250027 2.81249973 22.49999946 67.5c2.81249973 8.4375 14.06250027 16.875 22.50000027 14.06250027l67.5-11.25000054 11.24999973 14.06250027c19.68749973 22.50000027 33.75 50.625 39.37500027 75.9375l5.62500027 14.06250027-42.1875 50.625c-5.62500027 5.62500027-5.62500027 19.68749973 0 25.3125zM998.56250027 130.875c-33.75 8.4375-73.12500027-16.875-84.375-50.625l-14.06250027-39.37500027c-16.875-2.81249973-33.75-2.81249973-50.625 0l-11.24999973 36.56250054c-11.24999973 33.75-47.81250027 59.0625-84.375 53.43749973l-36.56250054-5.62500027c0 2.81249973-2.81249973 2.81249973-2.81249973 5.62500027s-2.81249973 5.62500027-5.62500027 8.4375c-2.81249973 5.62500027-5.62500027 11.24999973-8.4375 14.06250027 0 2.81249973 0 2.81249973-2.81249973 5.62499946l25.3125 28.12500054c22.50000027 30.93750027 22.50000027 73.12500027 0 101.25l-25.3125 28.12499973 16.875 33.75 33.75-5.62500027c33.75-8.4375 73.12500027 16.875 84.375 50.625l14.06250027 36.56250054c16.875 2.81249973 33.75 2.81249973 50.625 0l11.24999973-33.75c11.24999973-33.75 47.81250027-59.0625 84.375-53.43750054l33.75 2.81250054 8.4375-14.06250027c2.81249973-5.62500027 5.62500027-14.06250027 11.24999973-19.68749973l-25.3125-30.93750027c-19.68749973-28.12499973-19.68749973-73.12500027 2.81250054-98.43750027l22.49999946-25.3125c-5.62500027-14.06250027-11.24999973-25.3125-16.875-33.75l-30.93749946 5.62500027z"  horiz-adv-x="1262" />

    
    <glyph glyph-name="yanjizhushou-shangchuan_neicun" unicode="&#58925;" d="M130.742857 739.474286l763.428572 0 0-710.765715-763.428572 0 0 710.765715ZM894.354286 69.851429c0-22.857143-51.2-41.325714-114.285715-41.325715H245.028571c-63.085714 0-114.285714 18.285714-114.285714 41.325715v174.445714c0 22.857143-29.257143 41.325714 33.828572 41.325714h688.457142c63.085714 0 41.325714-18.285714 41.325715-41.325714zM780.068571 1.097143H245.028571a141.897143 141.897143 0 0 0-141.714285 141.714286V625.188571a141.897143 141.897143 0 0 0 141.714285 141.714286h535.04a141.897143 141.897143 0 0 0 141.714286-141.714286v-482.377142a141.897143 141.897143 0 0 0-141.714286-141.714286zM245.028571 712.045714a86.857143 86.857143 0 0 1-86.857142-86.857143v-482.377142a86.857143 86.857143 0 0 1 86.857142-86.857143h535.04a86.857143 86.857143 0 0 1 86.857143 86.857143V625.188571a86.857143 86.857143 0 0 1-86.857143 86.857143zM667.794286 394.24h-310.857143a77.897143 77.897143 0 0 0-75.154286 80.091429V737.645714a27.428571 27.428571 0 1 0 54.857143 0v-263.314285a23.405714 23.405714 0 0 1 20.297143-25.234286h310.857143a23.405714 23.405714 0 0 1 20.48 25.234286V737.645714a27.428571 27.428571 0 1 0 54.857143 0v-263.314285a77.897143 77.897143 0 0 0-75.337143-80.091429zM587.154286 528.64a27.428571 27.428571 0 0 0-27.428572 27.428571v53.577143a27.428571 27.428571 0 1 0 54.857143 0v-53.577143a27.428571 27.428571 0 0 0-27.428571-27.428571z"  horiz-adv-x="1024" />

    
    <glyph glyph-name="nginx" unicode="&#58940;" d="M512 896L68.48 640v-512L512-128l443.52 256V640L512 896z m256-707.84c0-30.08-27.562667-55.04-65.237333-55.04-26.922667 0-57.642667 10.88-76.842667 34.56l-256 304.682667v-284.16c0-30.762667-24.32-55.04-54.357333-55.04H312.32c-30.762667 0-55.04 25.6-55.04 55.04V579.84c0 30.08 26.88 55.04 64 55.04 27.562667 0 58.88-10.88 78.08-34.56l254.72-304.682667V579.84c0 30.762667 25.6 55.04 55.04 55.04h3.2c30.72 0 55.04-25.6 55.04-55.04v-391.68H768z"  horiz-adv-x="1024" />

    
    <glyph glyph-name="zhengque" unicode="&#58913;" d="M509.06459045 87.44638824000003c-41.25022888 0-81.26449585 8.11100006-118.96133423 24.02400971-36.38362885 15.37227631-69.05937195 37.46509553-97.17750549 65.50598145-28.04088593 28.04088593-50.13370514 60.71662903-65.50598144 97.17750549-15.91300964 37.69683838-24.02400971 77.71110534-24.02400971 118.96133423 0 41.25022888 8.11100006 81.26449585 24.02400971 118.96133422 15.37227631 36.38362885 37.46509553 69.05937195 65.50598144 97.17750549s60.71662903 50.13370514 97.1775055 65.50598145c37.69683838 15.91300964 77.71110534 24.02400971 118.96133422 24.02400972 41.25022888 0 81.26449585-8.11100006 118.96133423-24.02400972 36.38362885-15.37227631 69.05937195-37.46509553 97.1775055-65.50598145 28.04088593-28.04088593 50.13370514-60.71662903 65.50598144-97.17750549 15.91300964-37.69683838 24.02400971-77.71110534 24.02400971-118.96133422 0-54.61406708-14.59980011-108.22391511-42.17720032-155.03597261-5.87081909-9.88769531-18.61667633-13.20934297-28.58161927-7.33852385-9.88769531 5.87081909-13.20934297 18.61667633-7.33852386 28.58161926 23.79226685 40.40050507 36.38362885 86.67182922 36.38362885 133.87012482 0 145.53451538-118.42060089 263.95511628-263.95511628 263.95511627S245.1867218 538.6497345 245.1867218 393.11521912s118.42060089-263.95511628 263.95511628-263.95511628c49.5929718 0 97.87273407 13.82732392 139.66369628 39.93701935 9.73320007 6.10256196 22.63355256 3.16715241 28.73611451-6.64329529 6.10256196-9.73320007 3.16715241-22.63355256-6.64329529-28.7361145-48.51150513-30.20381928-104.43878174-46.27132417-161.83376313-46.27132415zM519.41577148 253.14253235L351.47944641 366.54203797c-9.57870484 6.41155243-12.05062867 19.38915253-5.63907624 28.96785736 6.41155243 9.57870484 19.38915253 12.05062867 28.96785737 5.63907623l131.24370575-88.60301972 136.34204864 230.27515412c5.87081909 9.88769531 18.69392395 13.20934297 28.58161927 7.33852387 9.88769531-5.87081909 13.20934297-18.69392395 7.33852386-28.58161928L519.41577148 253.14253235z"  horiz-adv-x="1024" />

    
    <glyph glyph-name="gongjuguanli" unicode="&#58905;" d="M15.515152 896h837.818181v-93.090909H15.515152zM729.212121 544.552727A217.212121 217.212121 0 0 1 605.090909 740.848485v-155.151515a62.244848 62.244848 0 0 0-62.060606-62.060606h-62.060606a62.244848 62.244848 0 0 0-62.060606 62.060606V740.848485a217.28 217.28 0 0 1 0-392.591515V-3.878788a62.244848 62.244848 0 0 1 62.060606-62.060606h62.060606a62.244848 62.244848 0 0 1 62.060606 62.060606V348.25697a217.212121 217.212121 0 0 1 124.121212 196.295757zM512-3.878788a31.030303 31.030303 0 1 0 31.030303 31.030303 31.030303 31.030303 0 0 0-31.030303-31.030303z"  horiz-adv-x="1024" />

    
    <glyph glyph-name="xiazai1" unicode="&#58947;" d="M224 480l64 64 192-192V768h64v-416l192 192 64-64-288-256-288 256zM896 256H640v-64H384v64H128v-256h768V256z"  horiz-adv-x="1024" />

    
    <glyph glyph-name="jiaobenguanli" unicode="&#59032;" d="M832 768H192a64 64 0 0 1-64-64v-640a64 64 0 0 1 64-64h640a64 64 0 0 1 64 64V704a64 64 0 0 1-64 64zM395.65 269.25L350.39 224 192 382.39l45.25 45.25 113.14 113.14 45.25-45.25-113.13-113.14zM480 128h-64l128 512h64z m193.61 96l-45.25 45.25 113.13 113.14-113.14 113.14 45.25 45.25 113.15-113.13L832 382.39z"  horiz-adv-x="1025" />

    
    <glyph glyph-name="xitongguanli" unicode="&#58994;" d="M162.1 692.3v-744M902.2 320c-3.3 0-6 2.7-6 6V441.9c0 3.3-2.7 6-6 6H549.4c-3.3 0-6 2.7-6 6v52.4c0 3.3 2.7 6 6 6H692c6.6 0 12 5.4 12 12v168c0 6.6-5.4 12-12 12H333c-6.6 0-12-5.4-12-12v-168c0-6.6 5.4-12 12-12h140.3c3.3 0 6-2.7 6-6v-52.4c0-3.3-2.7-6-6-6H134c-3.3 0-6-2.7-6-6v-115.8c0-3.3-2.7-6-6-6H76c-6.6 0-12-5.4-12-12v-168c0-6.6 5.4-12 12-12h168c6.6 0 12 5.4 12 12v168c0 6.6-5.4 12-12 12h-46c-3.3 0-6 2.7-6 6v51.8c0 3.3 2.7 6 6 6h275.3c3.3 0 6-2.7 6-6v-51.8c0-3.3-2.7-6-6-6h-77.2c-6.6 0-12-5.4-12-12v-168c0-6.6 5.4-12 12-12h232c6.6 0 12 5.4 12 12v168c0 6.6-5.4 12-12 12h-78.8c-3.3 0-6 2.7-6 6v51.8c0 3.3 2.7 6 6 6h276.9c3.3 0 6-2.7 6-6V326c0-3.3-2.7-6-6-6h-46c-6.6 0-12-5.4-12-12v-168c0-6.6 5.4-12 12-12h168c6.6 0 12 5.4 12 12V308c0 6.6-5.4 12-12 12h-46zM391 640.3h242.9c3.3 0 6-2.7 6-6v-52c0-3.3-2.7-6-6-6H391c-3.3 0-6 2.7-6 6v52c0 3.3 2.7 6 6 6zM186 192.1h-52c-3.3 0-6 2.7-6 6v52c0 3.3 2.7 6 6 6h52c3.3 0 6-2.7 6-6v-52c0-3.3-2.7-6-6-6z m384.1 0h-116c-3.3 0-6 2.7-6 6v52c0 3.3 2.7 6 6 6h116c3.3 0 6-2.7 6-6v-52c0-3.3-2.7-6-6-6z m320.1-0.1h-52c-3.3 0-6 2.7-6 6v52c0 3.3 2.7 6 6 6h52c3.3 0 6-2.7 6-6v-52c0-3.4-2.7-6-6-6z"  horiz-adv-x="1024" />

    
    <glyph glyph-name="view-mode" unicode="&#59038;" d="M992 896H32C12.8 896 0 883.2 0 864v-960c0-19.2 12.8-32 32-32h960c19.2 0 32 12.8 32 32V864c0 19.2-12.8 32-32 32zM960 832v-192H64V832h896zM64-64V576h896v-640H64zM800 454.4H512c-19.2 0-32-12.8-32-32s12.8-32 32-32h288c19.2 0 32 12.8 32 32s-19.2 32-32 32zM800 275.20000000000005h-576c-12.8 0-32-12.8-32-32s12.8-32 32-32h569.6c19.2 0 32 12.8 32 32s-12.8 32-25.6 32zM800 102.39999999999998h-576c-19.2 0-32-12.8-32-32s12.8-32 32-32h569.6c19.2 0 32 12.8 32 32s-12.8 32-25.6 32zM198.4 736m-51.2 0a51.2 51.2 0 1 1 102.4 0 51.2 51.2 0 1 1-102.4 0ZM364.8 736m-51.2 0a51.2 51.2 0 1 1 102.4 0 51.2 51.2 0 1 1-102.4 0ZM524.8 736m-51.2 0a51.2 51.2 0 1 1 102.4 0 51.2 51.2 0 1 1-102.4 0Z"  horiz-adv-x="1024" />

    
    <glyph glyph-name="rizhi" unicode="&#58901;" d="M879.5 640.40625L731.5625 785.0625c-12.28125 12.28125-29.0625 18.75-45.84375 18.75H215.5625c-50.34375 0-91.03125-41.34375-91.03125-91.6875v-656.25c0-50.34375 40.6875-91.6875 91.03125-91.6875h592.21875c50.34375 0 91.6875 41.34375 91.6875 91.6875V593.25c0 17.4375-7.6875 34.875-19.96875 47.15625zM834.875 55.875c0-14.8125-12.28125-27.09375-27.09375-27.09375H215.5625c-14.8125 0-26.4375 12.28125-26.4375 27.09375V712.125c0 14.8125 11.625 27.09375 26.4375 27.09375l425.625-0.65625v-114.28125c0-53.625 43.3125-96.84375 96.84375-96.84375h96.84375v-471.5625z m0 536.0625H738.03125c-18.09375 0-32.25 14.25-32.25 32.25v95.625l129.1875-126.5625v-1.3125zM673.25 418.5H350.28125c-17.8125 0-32.25-14.4375-32.25-32.25s14.4375-32.25 32.25-32.25H673.25c17.8125 0 32.25 14.4375 32.25 32.25S691.0625 418.5 673.25 418.5zM673.25 224.71875H350.28125c-17.8125 0-32.25-14.4375-32.25-32.25s14.4375-32.25 32.25-32.25H673.25c17.8125 0 32.25 14.4375 32.25 32.25S691.0625 224.71875 673.25 224.71875z"  horiz-adv-x="1024" />

    
    <glyph glyph-name="APIguanli" unicode="&#58977;" d="M303.339977 231.057325l106.011591 276.040855h39.350086l112.971638-276.040855h-41.612716l-32.193289 83.618933h-115.431018l-30.311864-83.618933h-38.784428z m79.647033 113.352842h93.579424l-28.811641 76.44984q-13.182279 34.775639-19.576668 57.242078a351.974224 351.974224 0 0 0-14.879251-52.716819zM590.853841 231.057325V507.09818h104.130165q27.483576 0 41.99392-2.631537 20.339076-3.393945 34.074715-12.89945t22.134424-26.647387a84.578091 84.578091 0 0 0 8.37419-37.653114q0-35.20603-22.404955-59.590786t-80.962803-24.384757H627.387936v-112.221527h-36.534095z m36.534095 144.796021h71.322031q35.402781 0 50.269735 13.182278t14.916142 37.087457q0 17.314038-8.755394 29.660127a40.936387 40.936387 0 0 1-23.068988 16.281098q-9.222676 2.45938-34.087012 2.459381H627.387936v-98.670341zM854.278074 231.057325V507.09818h36.534095v-276.040855h-36.534095zM914.938691-19.270707H623.108614a32.857322 32.857322 0 0 0 0 65.702347h291.830077c146.443805 0 265.613082 119.144683 265.613081 265.613081 0 133.728808-99.912328 247.020166-232.411446 263.522609l-23.364114 2.914365-4.734307 23.081285c-27.213044 132.560603-145.361678 228.722376-280.922724 228.722376-158.138159 0-286.788347-128.650188-286.788347-286.788347 0-3.209491 0.073781-6.62803 0.221344-10.772086l1.340362-37.739192-37.616223 3.910415a230.751365 230.751365 0 0 1-23.745317 1.22969c-125.071789 0-226.828653-101.756863-226.828653-226.828653s101.756863-226.828653 226.828653-226.828652h79.032189a32.857322 32.857322 0 0 0 0-65.702347h-79.032189C131.232537-19.270707 0.049188 111.96183 0.049188 273.260293c0 159.540006 128.379656 289.653525 287.255629 292.481812A352.515287 352.515287 0 0 0 863.205624 815.565965a353.941728 353.941728 0 0 0 115.775332-178.464938c153.858837-30.12741 267.223976-166.008176 267.223976-325.080899a331.290835 331.290835 0 0 0-331.266241-331.290835zM698.033638-127.999914a32.734353 32.734353 0 0 0-22.195908 8.607831L532.505041 12.086393l135.684016 141.315997a32.857322 32.857322 0 0 0 47.39226-45.498537l-89.115648-92.829313 93.776174-86.016829a32.857322 32.857322 0 0 0-22.208205-57.057625z"  horiz-adv-x="1246" />

    
    <glyph glyph-name="fabu1" unicode="&#58898;" d="M955.016069 847.901112c19.239555 0 27.593572-15.189122 23.796292-34.302101-52.022744-270.872682-141.005686-601.236094-202.26848-876.159209-2.911248-13.03733-14.429666-21.264771-26.454388-21.264771-4.809889 0-9.746354 1.26576-14.30309 4.177009-52.022744 32.530037-153.030408 95.944623-203.281088 129.360692-0.886032 0.506304-1.772064 0.759456-2.658096 0.759456-1.26576 0-2.53152-0.506304-3.417553-1.392336-36.200742-36.327318-77.970828-79.869468-114.424722-115.563906-5.316193-5.316193-17.340915-9.240049-28.099876-9.24005-6.328801 0-12.151298 1.26576-16.075155 4.430161-11.518418 9.240049-10.885538 31.770581-10.758961 33.416069v0.253152c-0.126576 4.430161-2.278368 149.486279-1.139184 221.254883 0 1.139184 0.506304 2.404944 1.26576 3.1644 97.590111 105.311248 195.939679 209.609889 296.441038 312.009889 31.011125 32.783189 87.337454 89.99555 88.09691 102.273424 0.253152 4.556737-1.139184 6.835105-4.936465 6.835105-0.506304 0-1.139184 0-1.89864-0.126576-15.442274-2.278368-87.970334-72.021755-130.246725-109.994561-104.172064-96.577503-207.9644-193.914462-316.186897-286.188381-0.886032-0.759456-2.025216-1.139184-3.1644-1.139184-0.759456 0-1.518912 0.126576-2.151793 0.506304C221.508035 241.85513 112.019778 317.800742 55.060569 358.178492c-16.708035 11.77157-14.682818 37.086774 3.544128 46.326823 143.916934 72.148331 639.082324 320.363906 879.197034 440.104821 0.253152 0.126576 0.379728 0.253152 0.63288 0.253152 6.202225 2.151792 11.77157 3.037824 16.581458 3.037824m0 41.896663c-9.619778 0-19.745859-1.772064-30.125092-5.316193-2.025216-0.63288-3.923857-1.518912-5.822497-2.404944C679.713226 762.715451 185.687021 515.00618 39.871446 441.845241 18.100371 430.959703 3.923857 409.948084 2.025216 385.518912c-1.89864-24.302596 8.860321-47.339431 28.859333-61.515945 59.870457-42.529543 169.865019-118.728307 233.532756-150.372312 6.455377-3.1644 13.67021-4.936465 20.885044-4.936465 10.379234 0 20.378739 3.417553 28.60618 9.746354-0.886032-71.642027 1.012608-202.521632 1.26576-215.812114-0.253152-12.024722 1.26576-46.326823 26.454388-66.45241 11.13869-8.986897 25.821508-13.67021 42.276391-13.67021 17.467491 0 41.643511 5.569345 57.592089 21.264771 22.150803 21.644499 46.200247 46.200247 69.490235 69.996539 8.227441 8.354017 16.201731 16.454883 23.922868 24.429172 53.41508-34.681829 132.271941-84.173053 178.851916-113.285538 11.012114-6.835105 23.54314-10.50581 36.453893-10.50581 15.189122 0 30.251669 5.189617 42.276391 14.429667 12.657602 9.746354 21.517923 23.796292 25.062052 39.491718 23.796292 106.830161 51.136712 219.73597 80.249196 339.350309 44.428183 182.775773 90.248702 371.75377 122.272435 537.948084 4.556737 23.163412-0.126576 44.681335-13.417058 60.756489-12.531026 15.189122-30.757973 23.416564-51.643016 23.416564z"  horiz-adv-x="1024" />

    
    <glyph glyph-name="yunrongqi" unicode="&#59149;" d="M359.872 636.16a231.808 231.808 0 0 0 195.072 107.136c105.28 0 193.408-70.848 221.888-167.04 5.76-19.52 9.92-43.2 10.304-64.448 4.672-0.32 9.408-3.136 13.952-3.968 18.176-3.264 35.072-9.984 49.984-19.712 21.184-13.824 37.888-33.472 48.64-56.576l0.384 0.192a32.576 32.576 0 0 1 58.176 29.184l0.256 0.128a200.512 200.512 0 0 1-110.4 101.632c-24.704 139.776-146.368 246.528-293.12 246.528-116.608 0-216.704-67.904-265.728-165.632C164.032 637.824 63.744 535.04 63.744 408.448c0-95.616 63.104-177.024 147.712-213.888a32.896 32.896 0 0 1 7.232-3.52c3.072-0.96 6.144-1.92 9.536-1.92a32.128 32.128 0 0 1 32.128 32.128 31.68 31.68 0 0 1-24.512 30.592c-61.76 25.472-106.112 85.76-106.112 156.608 0 81.472 57.536 149.568 134.08 166.208 11.712 2.56 23.808 4.096 36.224 4.096 11.264 0 22.144-1.216 32.832-3.328 6.336 21.632 15.04 42.176 27.008 60.736zM825.472 455.36a32 32 0 0 1-26.944 14.784H480.576a31.808 31.808 0 0 1-26.688-14.4l-132.032-200.192a31.936 31.936 0 0 1-5.312-17.6v-247.296a32 32 0 0 1 32-32h577.984a32 32 0 0 1 32 32v247.296a31.616 31.616 0 0 1-5.056 17.216l-128 200.192z m-327.68-49.216h283.2l81.216-127.04h-49.6a32 32 0 0 1-27.712-16l-49.536-95.872a32 32 0 0 0-27.712-16h-142.08a32 32 0 0 0-28.672 17.856l-40.448 92.096a32 32 0 0 1-28.672 17.856h-53.76l83.776 127.104z m-117.248-383.488V215.04h47.424a32 32 0 0 0 28.672-17.856l40.384-92.096a32 32 0 0 1 28.672-17.856h218.88a32 32 0 0 1 27.712 16l49.536 95.872a31.936 31.936 0 0 0 27.712 16h44.928v-192.384h-513.92z"  horiz-adv-x="1024" />

    
    <glyph glyph-name="shouqi" unicode="&#58965;" d="M70.4 742.4c0 45.9264 37.2736 83.2 83.2 83.2h716.8c45.9264 0 83.2-37.2736 83.2-83.2v-716.8c0-45.9264-37.2736-83.2-83.2-83.2H153.6A83.2 83.2 0 0 0 70.4 25.6V742.4z m64 0v-716.8c0-10.5984 8.6016-19.2 19.2-19.2h716.8a19.2 19.2 0 0 1 19.2 19.2V742.4A19.2 19.2 0 0 1 870.4 761.6H153.6A19.2 19.2 0 0 1 134.4 742.4zM307.2 352a32 32 0 1 0 0 64h409.6a32 32 0 1 0 0-64H307.2z"  horiz-adv-x="1024" />

    
    <glyph glyph-name="shouqi1" unicode="&#58966;" d="M512 543.5391999999999l335.7696-335.7696a32 32 0 1 1 45.2608 45.2608l-354.816 354.816a37.12 37.12 0 0 1-52.48 0l-354.7648-354.816a32 32 0 0 1 45.2608-45.2608L512 543.5391999999999z"  horiz-adv-x="1024" />

    
    <glyph glyph-name="xiala" unicode="&#58972;" d="M512 224.46079999999995l335.7696 335.7696a32 32 0 1 0 45.2608-45.2608l-354.816-354.816a37.12 37.12 0 0 0-52.48 0l-354.7648 354.816a32 32 0 0 0 45.2608 45.2608L512 224.46079999999995z"  horiz-adv-x="1024" />

    
    <glyph glyph-name="zhankai" unicode="&#58981;" d="M70.4 742.4c0 45.9264 37.2736 83.2 83.2 83.2h716.8c45.9264 0 83.2-37.2736 83.2-83.2v-716.8c0-45.9264-37.2736-83.2-83.2-83.2H153.6A83.2 83.2 0 0 0 70.4 25.6V742.4z m64 0v-716.8c0-10.5984 8.6016-19.2 19.2-19.2h716.8a19.2 19.2 0 0 1 19.2 19.2V742.4A19.2 19.2 0 0 1 870.4 761.6H153.6A19.2 19.2 0 0 1 134.4 742.4zM307.2 352a32 32 0 1 0 0 64h409.6a32 32 0 1 0 0-64H307.2zM480 588.8a32 32 0 1 0 64 0v-409.6a32 32 0 1 0-64 0V588.8z"  horiz-adv-x="1024" />

    
    <glyph glyph-name="empty" unicode="&#58971;" d="M461.73607253 179.82477653c0-19.95134293-17.11581867-36.12453547-38.22933333-36.12453546s-38.22933333 16.17319253-38.22933333 36.12453546V473.74609067c0 19.95134293 17.11581867 36.12453547 38.22933333 36.12453546s38.22933333-16.17319253 38.22933333-36.12453546v-293.92131414zM638.72259413 179.82477653c0-19.95134293-17.11581867-36.12453547-38.22933333-36.12453546s-38.22933333 16.17319253-38.22933333 36.12453546V473.74609067c0 19.95134293 17.11581867 36.12453547 38.22933333 36.12453546s38.22933333-16.17319253 38.22933333-36.12453546v-293.92131414zM871.71945813 699.3199104H694.67286187v89.33321387c0 1.1862016-0.0557056 2.35820373-0.1605632 3.51491413 0.1015808 1.0059776 0.1605632 2.02287787 0.1605632 3.05288533 0 18.13818027-16.13714773 32.84227413-36.04261547 32.84227414H365.37084587c-19.90546773 0-36.04261547-14.70409387-36.04261547-32.84227414 0-1.03000747 0.0589824-2.04690773 0.1605632-3.05288533a38.91636907 38.91636907 0 0 1-0.1605632-3.51491413v-89.33321387H152.28054187c-30.56380587 0-55.3418752-22.0561408-55.3418752-49.2634112 0-27.2072704 24.77697707-49.2634112 55.3418752-49.2634112h24.47988053L224.51541333 33.61832960000004c0-43.8337536 35.45388373-79.36846507 79.18933334-79.36846507h420.95957333c43.7354496 0 79.18933333 35.53471147 79.18933333 79.36846507l43.4143232 567.17585067h24.45257387c30.56489813 0 55.3418752 22.0561408 55.3418752 49.2634112-0.00109227 27.2072704-24.77806933 49.26231893-55.34296747 49.26231893z m-476.85632 63.05983147h234.27263147v-63.0587392H394.86313813v63.0587392zM725.83304533 29.48300800000004H306.905088l-51.10715733 571.31117227h512.43799893L725.83304533 29.48300800000004z"  horiz-adv-x="1024" />

    
    <glyph glyph-name="start" unicode="&#58975;" d="M737.4667776 416.4304896L439.24739413 605.03545173c-28.75938133 18.23757653-52.7859712 5.60114347-52.7859712-28.63049386v-373.85120427c0-33.8624512 24.02658987-47.62064213 53.59643307-29.81451093l296.59736747 178.01980586h0.00436906c29.5665664 17.73950293 29.9401216 47.18482773 0.80718507 65.67144107z m-86.5533952-31.5293696L462.90807467 272.03283626999996v231.8336l188.00530773-118.96531627zM406.00971947 552.43516587l0.3375104-0.21408427c-0.13216427 0.0753664-0.27306667 0.1376256-0.40086187 0.21845333l0.06335147-0.00436906zM847.9637504 663.4389504000001c-0.02839893 0.03495253-0.0720896 0.05352107-0.11250347 0.0753664-7.00470613 8.77090133-17.78210133 14.39607467-29.88004693 14.39607467-21.11351467 0-38.22933333-17.11581867-38.22933333-38.22933334 0-10.17227947 3.98021973-19.4084864 10.45845333-26.2569984l-0.04805973-0.04696746C841.89184 550.97698987 872.99413333 470.84721493 872.99413333 383.45386667c0-199.06996907-161.37803093-360.448-360.448-360.448s-360.448 161.37803093-360.448 360.448 161.37803093 360.448 360.448 360.448l0.01529174 0.15837866c1.1206656-0.098304 2.25225387-0.15837867 3.3980416-0.15837866 21.11351467 0 38.22933333 17.11581867 38.22933333 38.22933333 0 19.79624107-15.0470656 36.077568-34.3277568 38.03272533l0.01856853 0.196608H512.54613333c-241.2969984 0-436.90666667-195.60966827-436.90666666-436.90666666s195.60966827-436.90666667 436.90666666-436.90666667 436.90666667 195.60966827 436.90666667 436.90666667c0 106.5353216-38.13102933 204.1643008-101.4890496 279.98508373z"  horiz-adv-x="1024" />

    
    </font>
</defs>
</svg>
